<svg width="169" height="127" viewBox="0 0 169 127" fill="none" xmlns="http://www.w3.org/2000/svg">
<g id="inbox-cleanup/rafiki">
<g id="background-complete">
<path id="Vector" d="M168.389 110.97H0V111.054H168.389V110.97Z" fill="#EBEBEB"/>
<path id="Vector_2" d="M28.8221 114.176H17.668V114.26H28.8221V114.176Z" fill="#EBEBEB"/>
<path id="Vector_3" d="M71.9599 113.263H57.6367V113.347H71.9599V113.263Z" fill="#EBEBEB"/>
<path id="Vector_4" d="M37.9433 115.358H31.4805V115.442H37.9433V115.358Z" fill="#EBEBEB"/>
<path id="Vector_5" d="M151.516 116.739H146.387V116.823H151.516V116.739Z" fill="#EBEBEB"/>
<path id="Vector_6" d="M143.388 116.739H131.84V116.823H143.388V116.739Z" fill="#EBEBEB"/>
<path id="Vector_7" d="M111.752 114.314H103.727V114.398H111.752V114.314Z" fill="#EBEBEB"/>
<path id="Vector_8" d="M79.8154 95.9492H14.7902C14.2802 95.9492 13.7911 95.7467 13.4304 95.386C13.0698 95.0254 12.8672 94.5363 12.8672 94.0262V2.61442C12.8716 2.10733 13.0762 1.62252 13.4363 1.26552C13.7965 0.908522 14.2831 0.708233 14.7902 0.708252H79.8154C80.3254 0.708252 80.8146 0.910854 81.1752 1.27149C81.5358 1.63212 81.7384 2.12124 81.7384 2.63126V94.0262C81.7384 94.5363 81.5358 95.0254 81.1752 95.386C80.8146 95.7467 80.3254 95.9492 79.8154 95.9492ZM14.7902 0.775608C14.3028 0.776498 13.8356 0.970515 13.4909 1.31517C13.1463 1.65982 12.9523 2.12701 12.9514 2.61442V94.0262C12.9523 94.5137 13.1463 94.9808 13.4909 95.3255C13.8356 95.6702 14.3028 95.8642 14.7902 95.8651H79.8154C80.3028 95.8642 80.77 95.6702 81.1147 95.3255C81.4593 94.9808 81.6533 94.5137 81.6542 94.0262V2.61442C81.6533 2.12701 81.4593 1.65982 81.1147 1.31517C80.77 0.970515 80.3028 0.776498 79.8154 0.775608H14.7902Z" fill="#EBEBEB"/>
<path id="Vector_9" d="M152.666 95.9492H87.6339C87.1242 95.9484 86.6356 95.7455 86.2752 95.385C85.9147 95.0246 85.7118 94.536 85.7109 94.0262V2.61442C85.7163 2.10761 85.9211 1.62331 86.2811 1.26649C86.641 0.909682 87.1271 0.70911 87.6339 0.708252H152.666C153.172 0.710005 153.657 0.911077 154.015 1.26789C154.374 1.6247 154.578 2.10849 154.582 2.61442V94.0262C154.582 94.5351 154.38 95.0232 154.021 95.3836C153.662 95.7441 153.175 95.9475 152.666 95.9492ZM87.6339 0.775608C87.1465 0.776498 86.6793 0.970515 86.3347 1.31517C85.99 1.65982 85.796 2.12701 85.7951 2.61442V94.0262C85.796 94.5137 85.99 94.9808 86.3347 95.3255C86.6793 95.6702 87.1465 95.8642 87.6339 95.8651H152.666C153.153 95.8642 153.62 95.6702 153.965 95.3255C154.31 94.9808 154.504 94.5137 154.505 94.0262V2.61442C154.504 2.12701 154.31 1.65982 153.965 1.31517C153.62 0.970515 153.153 0.776498 152.666 0.775608H87.6339Z" fill="#EBEBEB"/>
<path id="Vector_10" d="M103.558 48.3187L139.887 48.3187V11.8927L103.558 11.8927V48.3187Z" fill="#F0F0F0"/>
<path id="Vector_11" d="M103.56 11.8961H102.934V48.322H103.56V11.8961Z" fill="#E0E0E0"/>
<path id="Vector_12" d="M106.767 46.0184L136.68 46.0184V14.1929L106.767 14.1929V46.0184Z" fill="#FAFAFA"/>
<path id="Vector_13" d="M118.547 39.101H128.021C130.075 39.101 131.449 37.4373 131.089 35.3965L129.247 24.8452C129.042 23.8243 128.498 22.9026 127.703 22.23C126.908 21.5574 125.909 21.1735 124.868 21.1406H115.418C113.364 21.1406 111.99 22.8043 112.35 24.8452L114.193 35.3965C114.396 36.4138 114.936 37.3329 115.726 38.0052C116.516 38.6774 117.51 39.0635 118.547 39.101Z" fill="#F0F0F0"/>
<path id="Vector_14" d="M35.3522 59.3818H27.2695V109.242H35.3522V59.3818Z" fill="#F0F0F0"/>
<path id="Vector_15" d="M70.8175 109.245H28.0938V110.966H70.8175V109.245Z" fill="#F0F0F0"/>
<path id="Vector_16" d="M35.3506 109.245H71.5273V59.3852L35.3506 59.3852L35.3506 109.245Z" fill="#F5F5F5"/>
<path id="Vector_17" d="M36.8072 94.2485H70.0742V85.3441H36.8072V94.2485Z" fill="#F0F0F0"/>
<path id="Vector_18" d="M36.8072 105.901H70.0742V96.9967H36.8072V105.901Z" fill="#F0F0F0"/>
<path id="Vector_19" d="M66.1382 84.7985H40.7451C40.5256 84.7985 40.3477 84.9764 40.3477 85.1959V85.6236C40.3477 85.8431 40.5256 86.021 40.7451 86.021H66.1382C66.3576 86.021 66.5356 85.8431 66.5356 85.6236V85.1959C66.5356 84.9764 66.3576 84.7985 66.1382 84.7985Z" fill="#F5F5F5"/>
<path id="Vector_20" d="M66.1382 96.4544H40.7451C40.5256 96.4544 40.3477 96.6323 40.3477 96.8518V97.2795C40.3477 97.499 40.5256 97.6769 40.7451 97.6769H66.1382C66.3576 97.6769 66.5356 97.499 66.5356 97.2795V96.8518C66.5356 96.6323 66.3576 96.4544 66.1382 96.4544Z" fill="#F5F5F5"/>
<path id="Vector_21" d="M36.8072 71.0344H70.0742V62.1299H36.8072V71.0344Z" fill="#F0F0F0"/>
<path id="Vector_22" d="M36.8072 82.5994H70.0742V73.6949H36.8072V82.5994Z" fill="#F0F0F0"/>
<path id="Vector_23" d="M66.1382 61.5877H40.7451C40.5256 61.5877 40.3477 61.7656 40.3477 61.9851V62.4128C40.3477 62.6323 40.5256 62.8102 40.7451 62.8102H66.1382C66.3576 62.8102 66.5356 62.6323 66.5356 62.4128V61.9851C66.5356 61.7656 66.3576 61.5877 66.1382 61.5877Z" fill="#F5F5F5"/>
<path id="Vector_24" d="M66.1382 73.146H40.7451C40.5256 73.146 40.3477 73.3239 40.3477 73.5434V73.9711C40.3477 74.1906 40.5256 74.3685 40.7451 74.3685H66.1382C66.3576 74.3685 66.5356 74.1906 66.5356 73.9711V73.5434C66.5356 73.3239 66.3576 73.146 66.1382 73.146Z" fill="#F5F5F5"/>
<path id="Vector_25" d="M70.219 9.14795H24.8516V48.9754H70.219V9.14795Z" fill="#E6E6E6"/>
<path id="Vector_26" d="M75.08 7.59875H21.9128C21.8537 7.59875 21.7951 7.61045 21.7406 7.63317C21.686 7.65589 21.6365 7.68918 21.5948 7.73113C21.5532 7.77308 21.5203 7.82286 21.498 7.87759C21.4757 7.93233 21.4644 7.99094 21.4649 8.05004C21.4649 8.16883 21.512 8.28276 21.596 8.36676C21.68 8.45076 21.794 8.49795 21.9128 8.49795H75.08C75.1991 8.49796 75.3134 8.45087 75.3979 8.36697C75.4825 8.28306 75.5304 8.16914 75.5313 8.05004C75.5313 7.93035 75.4838 7.81557 75.3991 7.73093C75.3145 7.6463 75.1997 7.59875 75.08 7.59875Z" fill="#E6E6E6"/>
<path id="Vector_27" d="M72.1446 9.14795H25.75V48.9754H72.1446V9.14795Z" fill="#F0F0F0"/>
<path id="Vector_28" d="M70.219 48.9754H24.8516V50.2518H71.5459L70.219 48.9754Z" fill="#E6E6E6"/>
<path id="Vector_29" d="M75.3522 48.9754H28.9609L30.2845 50.2518H76.6791L75.3522 48.9754Z" fill="#F0F0F0"/>
<path id="Vector_30" d="M69.4492 46.2811V11.8422L28.4464 11.8422V46.2811H69.4492Z" fill="#FAFAFA"/>
<path id="Vector_31" d="M37.7578 46.2811L53.5729 11.8422H61.0427L45.2242 46.2811H37.7578Z" fill="white"/>
<path id="Vector_32" d="M46.8242 46.2811L62.6427 11.8422H65.5525L49.7374 46.2811H46.8242Z" fill="white"/>
<path id="Vector_33" d="M69.4492 46.2811V11.8422H69.1057V46.2811H69.4492Z" fill="#E6E6E6"/>
<g id="Group" opacity="0.4">
<path id="Vector_34" d="M28.4773 6.79382H23.8398V39.6601H28.4773V6.79382Z" fill="#F0F0F0"/>
<path id="Vector_35" d="M30.2855 6.79382H26.6719V39.6601H30.2855V6.79382Z" fill="#E6E6E6"/>
<path id="Vector_36" d="M33.114 6.79382H28.4766V39.6601H33.114V6.79382Z" fill="#F0F0F0"/>
<path id="Vector_37" d="M34.9222 6.79382H31.3086V39.6601H34.9222V6.79382Z" fill="#E6E6E6"/>
<path id="Vector_38" d="M37.7507 6.79382H33.1133V39.6601H37.7507V6.79382Z" fill="#F0F0F0"/>
</g>
<g id="Group_2" opacity="0.4">
<path id="Vector_39" d="M67.7287 6.79382H65.0547V39.6601H67.7287V6.79382Z" fill="#F0F0F0"/>
<path id="Vector_40" d="M68.7649 6.79382H66.6836V39.6601H68.7649V6.79382Z" fill="#E6E6E6"/>
<path id="Vector_41" d="M70.4006 6.79382H67.7266V39.6601H70.4006V6.79382Z" fill="#F0F0F0"/>
<path id="Vector_42" d="M71.4407 6.79382H69.3594V39.6601H71.4407V6.79382Z" fill="#E6E6E6"/>
<path id="Vector_43" d="M73.0725 6.79382H70.3984V39.6601H73.0725V6.79382Z" fill="#F0F0F0"/>
</g>
<path id="Vector_44" d="M120.18 72.8496C120.14 73.3368 120.246 73.8247 120.484 74.2519C120.721 74.679 121.08 75.0261 121.515 75.2492C121.95 75.4724 122.441 75.5617 122.927 75.5057C123.412 75.4498 123.87 75.2511 124.243 74.9349C124.616 74.6187 124.886 74.1991 125.021 73.7291C125.155 73.2591 125.147 72.7599 124.997 72.2945C124.848 71.8291 124.564 71.4185 124.181 71.1144C123.799 70.8104 123.334 70.6267 122.847 70.5864C122.194 70.5333 121.546 70.7419 121.045 71.1662C120.545 71.5905 120.234 72.196 120.18 72.8496Z" fill="#E0E0E0"/>
<path id="Vector_45" d="M127.052 76.7864C128.405 76.5874 129.34 75.3297 129.141 73.9772C128.942 72.6246 127.684 71.6895 126.332 71.8885C124.979 72.0875 124.044 73.3453 124.243 74.6978C124.442 76.0503 125.7 76.9854 127.052 76.7864Z" fill="#E0E0E0"/>
<path id="Vector_46" d="M128.555 74.648C128.515 75.1352 128.621 75.6232 128.859 76.0503C129.096 76.4774 129.455 76.8245 129.89 77.0477C130.325 77.2708 130.816 77.3601 131.302 77.3042C131.787 77.2482 132.245 77.0496 132.618 76.7333C132.991 76.4171 133.261 75.9975 133.396 75.5275C133.53 75.0575 133.522 74.5583 133.372 74.0929C133.223 73.6275 132.939 73.2169 132.556 72.9129C132.174 72.6089 131.709 72.4251 131.222 72.3849C130.898 72.3577 130.572 72.3947 130.263 72.4938C129.953 72.593 129.666 72.7522 129.419 72.9625C129.171 73.1728 128.967 73.4299 128.819 73.7191C128.671 74.0084 128.581 74.3241 128.555 74.648Z" fill="#E0E0E0"/>
<path id="Vector_47" d="M115.582 74.1462C115.543 74.6333 115.648 75.1213 115.886 75.5484C116.124 75.9755 116.483 76.3226 116.917 76.5458C117.352 76.769 117.844 76.8582 118.329 76.8023C118.815 76.7463 119.273 76.5477 119.645 76.2315C120.018 75.9152 120.289 75.4956 120.423 75.0257C120.557 74.5557 120.549 74.0565 120.4 73.5911C120.25 73.1257 119.966 72.715 119.584 72.411C119.201 72.107 118.737 71.9232 118.25 71.883C117.596 71.8299 116.948 72.0384 116.448 72.4628C115.948 72.8871 115.636 73.4925 115.582 74.1462Z" fill="#E0E0E0"/>
<path id="Vector_48" d="M134.955 76.7847C136.307 76.5857 137.242 75.328 137.043 73.9754C136.844 72.6229 135.587 71.6878 134.234 71.8868C132.882 72.0858 131.946 73.3436 132.145 74.6961C132.344 76.0486 133.602 76.9837 134.955 76.7847Z" fill="#E0E0E0"/>
<path id="Vector_49" d="M116.322 74.1369C117.361 73.2483 117.483 71.6856 116.594 70.6467C115.706 69.6077 114.143 69.4858 113.104 70.3744C112.065 71.263 111.943 72.8256 112.832 73.8646C113.72 74.9036 115.283 75.0255 116.322 74.1369Z" fill="#E0E0E0"/>
<path id="Vector_50" d="M108.75 73.5838C108.711 74.071 108.816 74.5589 109.054 74.986C109.292 75.4132 109.651 75.7602 110.085 75.9834C110.52 76.2066 111.012 76.2959 111.497 76.2399C111.983 76.184 112.441 75.9853 112.813 75.6691C113.186 75.3529 113.457 74.9332 113.591 74.4633C113.725 73.9933 113.717 73.4941 113.568 73.0287C113.418 72.5633 113.134 72.1526 112.752 71.8486C112.369 71.5446 111.905 71.3609 111.418 71.3206C110.764 71.2675 110.116 71.476 109.616 71.9004C109.116 72.3247 108.804 72.9302 108.75 73.5838Z" fill="#E0E0E0"/>
<path id="Vector_51" d="M105.926 74.2506C105.926 74.2506 106.35 84.3775 122.623 84.3775C138.896 84.3775 139.321 74.2506 139.321 74.2506H105.926Z" fill="#F0F0F0"/>
<path id="Vector_52" d="M148.607 84.3776H145.512V110.966H148.607V84.3776Z" fill="#E6E6E6"/>
<path id="Vector_53" d="M149.431 84.3776H147.609V110.966H149.431V84.3776Z" fill="#F0F0F0"/>
<path id="Vector_54" d="M135.439 84.3776H132.344V110.966H135.439V84.3776Z" fill="#E6E6E6"/>
<path id="Vector_55" d="M136.017 84.3776H134.195V110.966H136.017V84.3776Z" fill="#F0F0F0"/>
<path id="Vector_56" d="M106.064 87.6038H150V84.3808H106.064V87.6038Z" fill="#F0F0F0"/>
<path id="Vector_57" d="M92.6341 84.3776H89.5391V110.966H92.6341V84.3776Z" fill="#E6E6E6"/>
<path id="Vector_58" d="M93.2126 84.3776H91.3906V110.966H93.2126V84.3776Z" fill="#F0F0F0"/>
<path id="Vector_59" d="M88.9871 87.6038H104.738V84.3808H88.9871V87.6038Z" fill="#E6E6E6"/>
<path id="Vector_60" d="M105.798 84.3776H102.703V110.966H105.798V84.3776Z" fill="#E6E6E6"/>
<path id="Vector_61" d="M106.627 84.3776H104.805V110.966H106.627V84.3776Z" fill="#F0F0F0"/>
</g>
<g id="Shadow">
<path id="path" d="M84.1964 126.178C120.26 126.178 149.494 124.472 149.494 122.366C149.494 120.261 120.26 118.554 84.1964 118.554C48.1334 118.554 18.8984 120.261 18.8984 122.366C18.8984 124.472 48.1334 126.178 84.1964 126.178Z" fill="#F5F5F5"/>
</g>
<g id="Trash">
<path id="Vector_62" d="M119.718 119.022C119.719 119.695 119.48 120.346 119.046 120.86C118.611 121.374 118.008 121.717 117.344 121.827C109.173 123.206 100.829 123.206 92.6582 121.827C91.9972 121.714 91.3978 121.369 90.9663 120.856C90.5348 120.342 90.299 119.693 90.3008 119.022V91.7429H119.732L119.718 119.022Z" fill="#EEBDBD"/>
<path id="Vector_63" opacity="0.3" d="M90.2852 92.2346V96.0637C92.0566 96.7205 97.8728 97.202 105.002 97.202C112.132 97.202 117.958 96.7205 119.72 96.0637V92.2346H90.2852Z" fill="black"/>
<path id="Vector_64" d="M120.272 95.1545C120.272 96.02 113.59 96.7205 105.002 96.7205C96.4143 96.7205 89.7327 96.02 89.7327 95.1545L89.4531 91.753H120.568L120.272 95.1545Z" fill="#EEBDBD"/>
<path id="Vector_65" d="M105.002 93.3157C113.59 93.3157 120.551 92.616 120.551 91.753C120.551 90.89 113.59 90.1904 105.002 90.1904C96.4147 90.1904 89.4531 90.89 89.4531 91.753C89.4531 92.616 96.4147 93.3157 105.002 93.3157Z" fill="#EEBDBD"/>
<path id="Vector_66" opacity="0.3" d="M105.002 93.3157C113.59 93.3157 120.551 92.616 120.551 91.753C120.551 90.89 113.59 90.1904 105.002 90.1904C96.4147 90.1904 89.4531 90.89 89.4531 91.753C89.4531 92.616 96.4147 93.3157 105.002 93.3157Z" fill="black"/>
<path id="Vector_67" opacity="0.2" d="M94.2315 117.102C93.929 117.101 93.6391 116.981 93.4252 116.767C93.2113 116.553 93.0907 116.263 93.0898 115.961V100.321C93.0907 100.018 93.2113 99.7282 93.4252 99.5143C93.6391 99.3004 93.929 99.1798 94.2315 99.179C94.5338 99.1807 94.8231 99.3016 95.0369 99.5153C95.2506 99.729 95.3714 100.018 95.3732 100.321V115.961C95.3714 116.263 95.2506 116.552 95.0369 116.766C94.8231 116.98 94.5338 117.101 94.2315 117.102Z" fill="black"/>
<path id="Vector_68" opacity="0.2" d="M115.774 117.102C115.472 117.101 115.182 116.981 114.968 116.767C114.754 116.553 114.634 116.263 114.633 115.961V100.321C114.634 100.018 114.754 99.7282 114.968 99.5143C115.182 99.3004 115.472 99.1798 115.774 99.179C116.077 99.1807 116.366 99.3016 116.58 99.5153C116.794 99.729 116.914 100.018 116.916 100.321V115.961C116.914 116.263 116.794 116.552 116.58 116.766C116.366 116.98 116.077 117.101 115.774 117.102Z" fill="black"/>
<path id="Vector_69" opacity="0.2" d="M108.591 117.102C108.289 117.101 107.999 116.98 107.786 116.766C107.572 116.552 107.451 116.263 107.449 115.961V100.321C107.451 100.018 107.572 99.729 107.786 99.5153C107.999 99.3016 108.289 99.1807 108.591 99.179C108.893 99.1798 109.183 99.3004 109.397 99.5143C109.611 99.7282 109.732 100.018 109.733 100.321V115.961C109.732 116.263 109.611 116.553 109.397 116.767C109.183 116.981 108.893 117.101 108.591 117.102Z" fill="black"/>
<path id="Vector_70" opacity="0.2" d="M101.411 117.102C101.109 117.101 100.82 116.98 100.606 116.766C100.392 116.552 100.271 116.263 100.27 115.961V100.321C100.271 100.018 100.392 99.729 100.606 99.5153C100.82 99.3016 101.109 99.1807 101.411 99.179C101.714 99.1798 102.004 99.3004 102.218 99.5143C102.431 99.7282 102.552 100.018 102.553 100.321V115.961C102.552 116.263 102.431 116.553 102.218 116.767C102.004 116.981 101.714 117.101 101.411 117.102Z" fill="black"/>
</g>
<g id="Character">
<path id="Vector_71" d="M64.9612 29.0515C64.9612 29.3606 64.8696 29.6627 64.6979 29.9197C64.5262 30.1767 64.2821 30.377 63.9966 30.4952C63.7111 30.6135 63.3969 30.6445 63.0937 30.5842C62.7906 30.5239 62.5122 30.375 62.2936 30.1565C62.0751 29.938 61.9263 29.6595 61.866 29.3564C61.8057 29.0533 61.8366 28.7391 61.9549 28.4535C62.0732 28.168 62.2734 27.924 62.5304 27.7522C62.7874 27.5805 63.0895 27.4889 63.3986 27.4889C63.813 27.4889 64.2105 27.6535 64.5036 27.9466C64.7966 28.2396 64.9612 28.6371 64.9612 29.0515Z" fill="#263238"/>
<path id="Vector_72" d="M62.1453 29.2773C62.1301 29.2777 62.1151 29.2738 62.102 29.2661C62.0889 29.2583 62.0782 29.247 62.0712 29.2335C61.968 29.0438 61.9031 28.8355 61.8803 28.6207C61.8575 28.4059 61.8772 28.1887 61.9384 27.9815C61.9995 27.7744 62.1008 27.5813 62.2366 27.4132C62.3724 27.2452 62.5399 27.1056 62.7296 27.0023C62.9194 26.8991 63.1276 26.8342 63.3424 26.8114C63.5572 26.7886 63.7744 26.8083 63.9816 26.8694C64.1888 26.9306 64.3819 27.0319 64.5499 27.1677C64.7179 27.3035 64.8575 27.471 64.9608 27.6607C64.9707 27.6805 64.9727 27.7034 64.9665 27.7246C64.9602 27.7459 64.9462 27.7639 64.9271 27.7752C64.9174 27.7806 64.9067 27.7839 64.8957 27.7851C64.8847 27.7863 64.8735 27.7853 64.8629 27.7822C64.8522 27.7791 64.8423 27.7739 64.8337 27.7669C64.8251 27.7599 64.8179 27.7513 64.8126 27.7416C64.6255 27.3977 64.3094 27.1422 63.934 27.0314C63.5585 26.9205 63.1543 26.9634 62.8105 27.1505C62.4666 27.3376 62.2111 27.6537 62.1003 28.0292C61.9894 28.4047 62.0323 28.8088 62.2194 29.1527C62.2248 29.1624 62.2281 29.1731 62.2293 29.1841C62.2305 29.1951 62.2295 29.2063 62.2264 29.2169C62.2232 29.2276 62.218 29.2375 62.2111 29.2461C62.2041 29.2547 62.1955 29.2619 62.1857 29.2672C62.1732 29.2736 62.1594 29.2771 62.1453 29.2773Z" fill="#263238"/>
<path id="Vector_73" d="M60.6245 36.1913C60.3201 36.19 60.022 36.1044 59.7633 35.944C59.5046 35.7836 59.2954 35.5546 59.159 35.2824C59.0226 35.0103 58.9643 34.7057 58.9905 34.4024C59.0168 34.0991 59.1266 33.809 59.3077 33.5644C59.4369 33.3914 59.5988 33.2456 59.7843 33.1352C59.9698 33.0249 60.1752 32.9521 60.3888 32.9211C60.3997 32.9192 60.4108 32.9196 60.4216 32.9221C60.4323 32.9247 60.4424 32.9295 60.4513 32.9361C60.4601 32.9427 60.4675 32.9511 60.4729 32.9607C60.4784 32.9703 60.4819 32.9809 60.4831 32.9919C60.486 33.0137 60.4802 33.0358 60.467 33.0535C60.4538 33.0711 60.4342 33.0828 60.4124 33.0862C60.0252 33.1429 59.6764 33.3511 59.4427 33.665C59.209 33.9789 59.1096 34.3728 59.1663 34.7599C59.223 35.1471 59.4312 35.496 59.7451 35.7296C60.059 35.9633 60.4529 36.0627 60.8401 36.006C60.8624 36.0025 60.8852 36.0079 60.9036 36.0212C60.9219 36.0344 60.9342 36.0544 60.9377 36.0768C60.9413 36.0991 60.9359 36.1219 60.9226 36.1402C60.9093 36.1586 60.8893 36.1708 60.867 36.1744C60.7866 36.1851 60.7056 36.1907 60.6245 36.1913Z" fill="#263238"/>
<path id="Vector_74" d="M69.1159 38.7374C68.8 38.7369 68.491 38.6445 68.2268 38.4713C68.208 38.4589 68.1947 38.4397 68.1897 38.4178C68.1847 38.3958 68.1883 38.3728 68.1998 38.3534C68.2128 38.3352 68.2322 38.3226 68.2541 38.3182C68.276 38.3139 68.2988 38.318 68.3177 38.3299C68.646 38.5429 69.0454 38.6168 69.4281 38.5353C69.8109 38.4539 70.1456 38.2237 70.3586 37.8954C70.5716 37.5672 70.6455 37.1678 70.5641 36.785C70.4826 36.4023 70.2524 36.0676 69.9241 35.8545C69.9054 35.8421 69.8921 35.823 69.8871 35.801C69.8821 35.7791 69.8857 35.756 69.8972 35.7367C69.9101 35.7184 69.9295 35.7059 69.9515 35.7015C69.9734 35.6971 69.9961 35.7012 70.0151 35.7131C70.3802 35.9508 70.6362 36.3235 70.7271 36.7496C70.818 37.1756 70.7363 37.6204 70.5 37.9864C70.3834 38.1685 70.2316 38.3254 70.0535 38.448C69.8753 38.5706 69.6745 38.6564 69.4628 38.7003C69.3487 38.7243 69.2325 38.7367 69.1159 38.7374Z" fill="#263238"/>
<path id="Vector_75" d="M62.5218 33.9248C63.7419 33.9248 64.731 32.9357 64.731 31.7156C64.731 30.4954 63.7419 29.5063 62.5218 29.5063C61.3016 29.5063 60.3125 30.4954 60.3125 31.7156C60.3125 32.9357 61.3016 33.9248 62.5218 33.9248Z" fill="#263238"/>
<path id="Vector_76" d="M64.5982 36.7613C65.7425 35.617 65.7425 33.7619 64.5982 32.6176C63.454 31.4734 61.5988 31.4734 60.4546 32.6176C59.3104 33.7619 59.3104 35.617 60.4546 36.7613C61.5988 37.9055 63.454 37.9055 64.5982 36.7613Z" fill="#263238"/>
<path id="Vector_77" d="M62.8336 41.6538C64.6229 41.6538 66.0734 40.2033 66.0734 38.414C66.0734 36.6247 64.6229 35.1742 62.8336 35.1742C61.0443 35.1742 59.5938 36.6247 59.5938 38.414C59.5938 40.2033 61.0443 41.6538 62.8336 41.6538Z" fill="#263238"/>
<path id="Vector_78" d="M69.2263 39.378C69.6374 37.6366 68.5588 35.8917 66.8174 35.4807C65.0759 35.0696 63.331 36.1482 62.92 37.8896C62.509 39.6311 63.5875 41.376 65.329 41.787C67.0704 42.198 68.8153 41.1195 69.2263 39.378Z" fill="#263238"/>
<path id="Vector_79" d="M76.819 45.318C76.819 45.5807 76.819 45.9141 76.8426 46.2172C76.8662 46.5203 76.8662 46.8436 76.8864 47.1568C76.9302 47.7832 76.974 48.4164 77.0413 49.0461C77.1626 50.3102 77.3321 51.5686 77.5498 52.8214C77.6071 53.1313 77.6576 53.4478 77.7216 53.7577L77.8698 54.5222C77.9068 54.6434 77.8698 54.6198 77.8226 54.6165C77.7755 54.6131 77.8226 54.6771 78.0213 54.6771C78.53 54.6261 79.0251 54.4835 79.483 54.2561C79.7524 54.1349 80.0285 54.0035 80.3047 53.8621C80.5809 53.7206 80.8604 53.559 81.113 53.4175L82.0964 54.5525C81.8618 54.8212 81.6121 55.0764 81.3487 55.317C81.0894 55.5639 80.8149 55.7945 80.527 56.0074C80.2252 56.2344 79.9066 56.4382 79.5739 56.6169C79.1953 56.8236 78.7894 56.9755 78.3682 57.0682C78.1084 57.1248 77.8424 57.1475 77.5768 57.1356C77.2526 57.1168 76.935 57.0368 76.6405 56.8998C76.3274 56.7528 76.0486 56.5417 75.8222 56.2802C75.6277 56.0528 75.4687 55.7973 75.3507 55.5224C75.2592 55.3121 75.1849 55.0947 75.1284 54.8724L74.9971 54.3807C74.9028 54.0439 74.8253 53.724 74.7445 53.394C74.4294 52.07 74.1866 50.7299 74.017 49.3796C73.9328 48.706 73.8655 48.0324 73.8251 47.342C73.8049 47.0053 73.788 46.6685 73.7779 46.3115C73.7678 45.9545 73.7779 45.6379 73.7779 45.2372L76.819 45.318Z" fill="#FFB573"/>
<path id="Vector_80" d="M75.185 41.6875C78.0577 43.8866 77.9432 48.0324 77.9432 48.0324L72.8039 49.2616C72.8039 49.2616 71.2278 45.0923 71.8677 43.5667C72.5345 41.9771 73.5684 40.4481 75.185 41.6875Z" fill="#EEBDBD"/>
<path id="Vector_81" opacity="0.7" d="M75.185 41.6875C78.0577 43.8866 77.9432 48.0324 77.9432 48.0324L72.8039 49.2616C72.8039 49.2616 71.2278 45.0923 71.8677 43.5667C72.5345 41.9771 73.5684 40.4481 75.185 41.6875Z" fill="white"/>
<path id="Vector_82" d="M80.9204 53.8048L81.7691 52.3768L83.8975 54.6535C83.8975 54.6535 82.3719 55.6301 80.7891 54.933L80.9204 53.8048Z" fill="#FFB573"/>
<path id="Vector_83" d="M82.8169 51.6932L85.5482 53.303L83.898 54.6535L81.7695 52.3769L82.8169 51.6932Z" fill="#FFB573"/>
<path id="Vector_84" d="M59.1055 119.881L62.0422 120.164L63.8675 113.283L60.9274 113L59.1055 119.881Z" fill="#FFB573"/>
<path id="Vector_85" d="M44.0508 114.098L46.6878 115.479L49.8232 109.262L47.1862 107.881L44.0508 114.098Z" fill="#FFB573"/>
<path id="Vector_86" d="M47.3914 114.27L45.0339 111.876C44.9947 111.834 44.9414 111.808 44.8842 111.803C44.827 111.798 44.7699 111.814 44.7241 111.849L42.5586 113.442C42.5061 113.484 42.463 113.537 42.4322 113.597C42.4014 113.657 42.3835 113.722 42.3797 113.79C42.3759 113.857 42.3862 113.924 42.4101 113.987C42.4339 114.05 42.4708 114.108 42.5182 114.156C43.3534 114.977 43.7979 115.331 44.8352 116.385C45.4751 117.032 46.7885 118.557 47.6709 119.453C48.5533 120.349 49.4828 119.524 49.1965 119.073C47.91 117.052 47.6945 115.782 47.6136 114.755C47.599 114.572 47.5203 114.4 47.3914 114.27Z" fill="#263238"/>
<path id="Vector_87" d="M62.5002 119.271H58.9405C58.8768 119.272 58.8151 119.293 58.7646 119.332C58.7142 119.371 58.6778 119.425 58.661 119.487L57.8998 122.285C57.8808 122.352 57.8777 122.422 57.8907 122.49C57.9037 122.558 57.9326 122.622 57.9748 122.676C58.0171 122.731 58.0717 122.775 58.1341 122.805C58.1966 122.835 58.2651 122.849 58.3343 122.848C59.5837 122.848 60.1765 122.848 61.7357 122.848H66.5079C67.8045 122.848 68.0773 121.538 67.5384 121.416C65.1338 120.884 63.7463 120.15 63.0054 119.45C62.865 119.33 62.6849 119.266 62.5002 119.271Z" fill="#263238"/>
<path id="Vector_88" opacity="0.2" d="M63.8639 113.287L62.9243 116.833H59.9102L60.9239 113.004L63.8639 113.287Z" fill="black"/>
<path id="Vector_89" opacity="0.2" d="M47.1829 107.881L49.8233 109.266L48.2068 112.468L45.5664 111.084L47.1829 107.881Z" fill="black"/>
<path id="Vector_90" d="M74.3186 41.2632C74.3186 41.2632 75.6186 41.8323 71.2607 59.0754L59.1568 58.028C59.7866 53.1211 60.0527 50.0834 58.5742 39.7679C60.2997 39.5658 62.0375 39.4881 63.7741 39.5355C65.6151 39.5633 67.4518 39.722 69.2703 40.0103C70.9732 40.3424 72.6581 40.7605 74.3186 41.2632Z" fill="#EEBDBD"/>
<path id="Vector_91" opacity="0.7" d="M74.3186 41.2632C74.3186 41.2632 75.6186 41.8323 71.2607 59.0754L59.1568 58.028C59.7866 53.1211 60.0527 50.0834 58.5742 39.7679C60.2997 39.5658 62.0375 39.4881 63.7741 39.5355C65.6151 39.5633 67.4518 39.722 69.2703 40.0103C70.9732 40.3424 72.6581 40.7605 74.3186 41.2632Z" fill="white"/>
<path id="Vector_92" d="M63.7738 39.4379C63.7738 39.4379 63.1002 39.4379 62.2751 39.4379C61.7868 40.1889 63.8479 42.3813 66.468 44.5367C67.1012 42.5733 68.098 42.58 68.098 42.58L63.7738 39.4379Z" fill="white"/>
<path id="Vector_93" d="M69.2629 39.9666C69.2629 39.9666 69.5694 40.0104 70.3036 40.1788C70.7885 40.9298 71.0613 42.809 69.63 44.4458C69.0676 42.4251 68.0977 42.607 68.0977 42.607L69.2629 39.9666Z" fill="white"/>
<path id="Vector_94" d="M64.8511 33.3926C65.0465 35.191 65.1104 38.4443 63.7734 39.5355C63.7734 39.5355 65.2014 40.9971 68.0977 42.6069C70.1992 41.152 69.2697 40.0103 69.2697 40.0103C67.3366 39.3705 67.515 37.9122 67.9764 36.5651L64.8511 33.3926Z" fill="#FFB573"/>
<path id="Vector_95" opacity="0.2" d="M66.1258 34.6893L67.9747 36.5651C67.8613 36.8769 67.7756 37.1981 67.7188 37.525C66.9779 37.3532 65.9002 36.5786 65.8867 35.7838C65.8996 35.4075 65.9806 35.0367 66.1258 34.6893Z" fill="black"/>
<path id="Vector_96" d="M71.7955 27.526C73.0348 28.6239 73.3985 31.2979 72.2198 33.1132C71.8659 31.273 71.7235 29.3985 71.7955 27.526Z" fill="#263238"/>
<path id="Vector_97" d="M64.4723 29.6174C64.2568 32.5777 64.1052 33.8271 65.385 35.5346C67.3114 38.1042 70.9957 37.7169 72.0903 34.8813C73.077 32.3251 73.2622 27.9133 70.5444 26.3574C69.9472 26.0088 69.2705 25.8192 68.5791 25.8069C67.8877 25.7946 67.2047 25.9599 66.5955 26.287C65.9862 26.6141 65.4711 27.0921 65.0993 27.6752C64.7276 28.2583 64.5117 28.927 64.4723 29.6174Z" fill="#FFB573"/>
<path id="Vector_98" d="M64.08 32.0018C66.2691 31.9176 67.4815 29.055 66.9326 27.8459C69.4146 29.1392 73.1731 30.1562 72.7555 28.4925C72.193 26.2462 69.4752 24.5994 66.131 25.7983C64.1945 26.6403 62.5376 28.4925 64.08 32.0018Z" fill="#263238"/>
<path id="Vector_99" d="M63.4113 31.9984C63.5048 32.5645 63.8168 33.0712 64.2802 33.4095C64.8999 33.8507 65.4656 33.359 65.5094 32.6417C65.5498 31.9917 65.2771 30.9814 64.5496 30.8264C64.3903 30.7948 64.2256 30.8035 64.0706 30.8518C63.9155 30.9001 63.775 30.9865 63.6618 31.103C63.5487 31.2195 63.4665 31.3624 63.4227 31.5189C63.379 31.6753 63.375 31.8401 63.4113 31.9984Z" fill="#FFB573"/>
<path id="Vector_100" d="M71.2586 59.0754C71.2586 59.0754 73.9966 76.9415 72.471 88.419C71.3159 97.091 63.8629 115.802 63.8629 115.802L59.0234 115.671C59.0234 115.671 64.0212 97.5355 65.0551 90.4127C66.8232 78.2146 62.3946 58.321 62.3946 58.321L71.2586 59.0754Z" fill="#263238"/>
<path id="Vector_101" opacity="0.2" d="M66.5362 62.7362L63.9531 66.8079C64.7309 71.6356 65.2246 76.5048 65.4316 81.3904C69.0621 74.8906 67.358 66.1747 66.5362 62.7362Z" fill="black"/>
<path id="Vector_102" d="M64.6174 116.072L58.5352 115.907L58.9056 113.95L65.1899 113.987L64.6174 116.072Z" fill="#EEBDBD"/>
<path id="Vector_103" d="M68.6109 58.8835C68.6109 58.8835 66.5903 78.6658 61.973 89.4293C58.2382 98.1182 49.3337 112.017 49.3337 112.017L45.7773 109.936C45.7773 109.936 51.5026 94.4809 54.3282 88.6884C61.222 74.4864 54.8097 63.0932 59.1542 58.0415L68.6109 58.8835Z" fill="#263238"/>
<path id="Vector_104" d="M49.72 112.32L45.1836 109.831L45.9211 107.892L50.7539 110.619L49.72 112.32Z" fill="#EEBDBD"/>
<path id="Vector_105" d="M59.0352 57.304L58.3954 58.3413C58.3482 58.4187 58.4391 58.5164 58.5806 58.5265L71.2738 59.6244C71.3815 59.6244 71.4792 59.5873 71.4893 59.52L71.6947 58.4457C71.6947 58.3716 71.6173 58.3009 71.4994 58.2907L59.2407 57.2299C59.203 57.2242 59.1644 57.2279 59.1286 57.2409C59.0927 57.2538 59.0606 57.2755 59.0352 57.304Z" fill="#EEBDBD"/>
<path id="Vector_106" d="M60.5629 58.8161L60.2261 58.7891C60.1622 58.7891 60.115 58.7454 60.1217 58.7049L60.3979 57.3107C60.3979 57.2669 60.4686 57.24 60.5326 57.2467L60.8694 57.2736C60.9367 57.2736 60.9839 57.3174 60.9738 57.3578L60.701 58.7521C60.6875 58.7925 60.6235 58.8228 60.5629 58.8161Z" fill="#263238"/>
<path id="Vector_107" d="M70.341 59.6615L70.0042 59.6345C69.9369 59.6345 69.8897 59.5907 69.8998 59.5503L70.176 58.1561C70.176 58.1156 70.2433 58.0853 70.3073 58.0921L70.6441 58.119C70.7081 58.119 70.7552 58.1628 70.7485 58.2032L70.4723 59.5975C70.4656 59.6446 70.3915 59.6682 70.341 59.6615Z" fill="#263238"/>
<path id="Vector_108" d="M65.4496 59.2404L65.1129 59.2101C65.0489 59.2101 65.0017 59.1663 65.0085 59.1259L65.2846 57.7316C65.2846 57.6912 65.352 57.6609 65.4193 57.6676L65.7561 57.6979C65.8201 57.6979 65.8672 57.7417 65.8605 57.7821L65.5843 59.1764C65.5776 59.2168 65.517 59.2438 65.4496 59.2404Z" fill="#263238"/>
<path id="Vector_109" d="M69.112 31.0891C69.0783 31.3282 69.1793 31.5404 69.3342 31.5606C69.4891 31.5808 69.6441 31.4057 69.671 31.1666C69.6979 30.9274 69.6003 30.7153 69.4454 30.6951C69.2904 30.6749 69.1423 30.85 69.112 31.0891Z" fill="#263238"/>
<path id="Vector_110" d="M71.8101 31.4528C71.7797 31.6919 71.8808 31.9041 72.0357 31.9243C72.1906 31.9445 72.3455 31.7694 72.3725 31.5303C72.3994 31.2912 72.3051 31.079 72.1502 31.0588C71.9953 31.0386 71.8437 31.2137 71.8101 31.4528Z" fill="#263238"/>
<path id="Vector_111" d="M72.0742 31.0622L72.6737 30.9746C72.6737 30.9746 72.3234 31.3821 72.0742 31.0622Z" fill="#263238"/>
<path id="Vector_112" d="M70.7491 31.7156C70.8895 32.289 71.107 32.8407 71.3957 33.3557C71.2625 33.4265 71.1154 33.4674 70.9648 33.4756C70.8141 33.4837 70.6635 33.4589 70.5234 33.4028L70.7491 31.7156Z" fill="#ED893E"/>
<path id="Vector_113" d="M69.1242 34.1167C68.6505 33.9624 68.2532 33.6337 68.0128 33.1973C68.0068 33.1834 68.0062 33.1677 68.0112 33.1534C68.0162 33.139 68.0264 33.1271 68.0397 33.1199C68.054 33.1128 68.0705 33.1117 68.0857 33.1168C68.1008 33.1218 68.1133 33.1326 68.1206 33.1468C68.2702 33.4092 68.4796 33.6326 68.7319 33.7988C68.9841 33.965 69.272 34.0693 69.5721 34.1033C69.5873 34.1033 69.6018 34.1093 69.6126 34.12C69.6233 34.1308 69.6293 34.1453 69.6293 34.1605C69.6293 34.1757 69.6233 34.1903 69.6126 34.201C69.6018 34.2117 69.5873 34.2178 69.5721 34.2178C69.4195 34.2009 69.2692 34.1671 69.1242 34.1167Z" fill="#263238"/>
<path id="Vector_114" d="M67.8825 29.7049C67.8629 29.6969 67.8456 29.6841 67.832 29.6679C67.8209 29.6572 67.8121 29.6444 67.806 29.6302C67.8 29.616 67.7969 29.6008 67.7969 29.5854C67.7969 29.57 67.8 29.5547 67.806 29.5406C67.8121 29.5264 67.8209 29.5136 67.832 29.5029C67.997 29.3553 68.1954 29.25 68.4101 29.196C68.6248 29.1421 68.8494 29.141 69.0646 29.193C69.0793 29.1973 69.093 29.2044 69.1049 29.214C69.1168 29.2237 69.1267 29.2356 69.1339 29.2491C69.1411 29.2626 69.1456 29.2774 69.147 29.2926C69.1484 29.3079 69.1467 29.3233 69.1421 29.3379C69.1334 29.3677 69.1134 29.3929 69.0863 29.408C69.0591 29.4232 69.0272 29.427 68.9972 29.4187C68.8201 29.3793 68.6361 29.3825 68.4604 29.4282C68.2847 29.4739 68.1224 29.5606 67.9869 29.6814C67.9722 29.6926 67.9553 29.7005 67.9373 29.7046C67.9193 29.7087 67.9006 29.7088 67.8825 29.7049Z" fill="#263238"/>
<path id="Vector_115" d="M72.9467 30.4223C72.9291 30.4154 72.9131 30.4051 72.8996 30.392C72.7815 30.2534 72.6325 30.1446 72.4646 30.0744C72.2967 30.0042 72.1146 29.9745 71.933 29.9878C71.9177 29.9912 71.9018 29.9914 71.8864 29.9882C71.871 29.985 71.8564 29.9785 71.8437 29.9693C71.831 29.9601 71.8203 29.9483 71.8125 29.9346C71.8047 29.921 71.7998 29.9058 71.7983 29.8902C71.7935 29.8594 71.801 29.8279 71.8193 29.8026C71.8376 29.7774 71.8652 29.7604 71.896 29.7554C72.1158 29.7357 72.3372 29.7687 72.5417 29.8519C72.7461 29.9351 72.9278 30.066 73.0713 30.2337C73.0877 30.2531 73.0973 30.2774 73.0988 30.3027C73.1002 30.3281 73.0935 30.3533 73.0795 30.3745C73.0654 30.3957 73.0449 30.4118 73.021 30.4204C72.9971 30.429 72.971 30.4297 72.9467 30.4223Z" fill="#263238"/>
<path id="Vector_116" d="M75.6104 55.8323C75.8284 55.153 76.1781 54.5232 76.6395 53.9791C77.1009 53.4349 77.665 52.9869 78.2995 52.6608C78.9341 52.3346 79.6266 52.1366 80.3377 52.0781C81.0487 52.0195 81.7643 52.1016 82.4436 52.3197C83.1229 52.5377 83.7527 52.8874 84.2968 53.3488C84.841 53.8102 85.289 54.3743 85.6151 55.0088C85.9413 55.6433 86.1393 56.3359 86.1978 57.0469C86.2564 57.758 86.1743 58.4736 85.9562 59.1529L83.8615 65.7066L73.5156 62.3826L75.6104 55.8323Z" fill="#EEBDBD"/>
<path id="Vector_117" opacity="0.3" d="M75.6104 55.8323C75.8284 55.153 76.1781 54.5232 76.6395 53.9791C77.1009 53.4349 77.665 52.9869 78.2995 52.6608C78.9341 52.3346 79.6266 52.1366 80.3377 52.0781C81.0487 52.0195 81.7643 52.1016 82.4436 52.3197C83.1229 52.5377 83.7527 52.8874 84.2968 53.3488C84.841 53.8102 85.289 54.3743 85.6151 55.0088C85.9413 55.6433 86.1393 56.3359 86.1978 57.0469C86.2564 57.758 86.1743 58.4736 85.9562 59.1529L83.8615 65.7066L73.5156 62.3826L75.6104 55.8323Z" fill="black"/>
<path id="Vector_118" d="M65.4027 52.552L63.51 58.4456C63.4823 58.5303 63.4716 58.6197 63.4787 58.7085C63.4857 58.7973 63.5103 58.8838 63.551 58.9631C63.5917 59.0423 63.6478 59.1127 63.7159 59.1701C63.784 59.2276 63.8628 59.2709 63.9478 59.2977L73.5123 62.3691L75.6138 55.8289C76.0548 54.4582 77.0218 53.3187 78.3025 52.6607C79.5831 52.0027 81.0726 51.88 82.4437 52.3196L72.2359 49.0394C70.864 48.6008 69.374 48.7243 68.093 49.3828C66.812 50.0413 65.8444 51.181 65.4027 52.552Z" fill="#EEBDBD"/>
<path id="Vector_119" d="M70.536 57.0211L73.173 48.8138C73.1821 48.7843 73.1847 48.7532 73.1808 48.7227C73.1768 48.6921 73.1663 48.6627 73.15 48.6366C73.1338 48.6104 73.112 48.588 73.0864 48.5709C73.0607 48.5539 73.0317 48.5425 73.0013 48.5376L70.307 48.1402L69.9703 49.2044L71.9337 49.8342L69.7109 56.7516L70.536 57.0211Z" fill="#263238"/>
<path id="Vector_120" d="M69.134 56.5698C69.0732 56.76 69.07 56.964 69.125 57.156C69.18 57.348 69.2906 57.5193 69.4429 57.6485C69.5953 57.7776 69.7824 57.8587 69.9808 57.8815C70.1792 57.9044 70.3799 57.8679 70.5576 57.7767C70.7353 57.6855 70.8819 57.5437 70.9791 57.3692C71.0762 57.1947 71.1194 56.9954 71.1033 56.7963C71.0872 56.5973 71.0125 56.4075 70.8885 56.2509C70.7646 56.0943 70.5971 55.9779 70.4071 55.9165C70.2806 55.8756 70.1473 55.8601 70.0148 55.8708C69.8823 55.8815 69.7532 55.9183 69.6349 55.979C69.5167 56.0397 69.4116 56.1231 69.3256 56.2245C69.2397 56.3259 69.1746 56.4432 69.134 56.5698Z" fill="#263238"/>
<path id="Vector_121" d="M74.0119 63.3491L87.281 67.6094C87.3292 67.6251 87.38 67.6311 87.4305 67.627C87.4811 67.623 87.5303 67.609 87.5754 67.5858C87.6205 67.5626 87.6605 67.5308 87.6932 67.492C87.7259 67.4533 87.7506 67.4085 87.7659 67.3602C87.7821 67.312 87.7885 67.2611 87.7846 67.2104C87.7808 67.1597 87.7669 67.1103 87.7436 67.0651C87.7204 67.0199 87.6884 66.9798 87.6494 66.9472C87.6104 66.9146 87.5653 66.8901 87.5167 66.8752L73.5135 62.3792C73.451 62.5739 73.4684 62.7855 73.5618 62.9674C73.6553 63.1493 73.8172 63.2866 74.0119 63.3491Z" fill="#EEBDBD"/>
<path id="Vector_122" opacity="0.2" d="M74.0119 63.3491L79.434 65.0903C79.4824 65.106 79.5335 65.1121 79.5843 65.1081C79.635 65.1041 79.6845 65.0901 79.7299 65.0669C79.7752 65.0438 79.8156 65.0119 79.8486 64.9732C79.8816 64.9344 79.9067 64.8895 79.9223 64.8411C79.9531 64.7437 79.9442 64.6381 79.8975 64.5473C79.8509 64.4565 79.7702 64.3878 79.6731 64.3561L73.5135 62.3792C73.451 62.5739 73.4684 62.7855 73.5618 62.9674C73.6553 63.1493 73.8172 63.2866 74.0119 63.3491Z" fill="black"/>
<path id="Vector_123" d="M59.9982 44.5232L59.8129 44.7287L59.6041 44.9678C59.4627 45.1294 59.3212 45.3046 59.1865 45.4696C58.9104 45.8064 58.6477 46.1667 58.4018 46.5304C57.3843 47.9708 56.5832 49.5525 56.0242 51.2251C55.8895 51.6427 55.7649 52.0603 55.6672 52.4881C55.6335 52.6127 55.6302 52.6632 55.6133 52.7204C55.6107 52.7698 55.6107 52.8193 55.6133 52.8686C55.6079 52.9212 55.6079 52.9743 55.6133 53.0269C55.6133 53.0875 55.7278 53.229 56.004 53.3637C56.336 53.513 56.6857 53.6194 57.0446 53.6803C57.9109 53.818 58.788 53.8755 59.6648 53.852C60.5808 53.852 61.5103 53.7712 62.4398 53.6735C63.3693 53.5759 64.3123 53.4546 65.225 53.3165L65.5921 54.7748C63.7124 55.3866 61.7782 55.8163 59.8163 56.0579C58.7834 56.1923 57.7389 56.2149 56.7011 56.1253C56.1078 56.0696 55.5251 55.9313 54.9701 55.7144C54.6371 55.5809 54.3243 55.4018 54.0406 55.1823C53.7064 54.9203 53.431 54.591 53.2323 54.2157C52.8902 53.5118 52.7987 52.7122 52.973 51.9492C53.0538 51.4339 53.1717 50.9389 53.3098 50.4202C53.574 49.4247 53.9257 48.4543 54.3605 47.5206C54.7965 46.5846 55.3043 45.6839 55.8794 44.8263C56.169 44.3986 56.4788 43.9844 56.8021 43.5769C56.9672 43.3748 57.1389 43.1761 57.3073 42.9774L57.5801 42.6844C57.6778 42.58 57.7552 42.4958 57.8899 42.3679L59.9982 44.5232Z" fill="#FFB573"/>
<path id="Vector_124" d="M64.4899 53.6263L66.8474 52.3768L66.9518 54.9094C66.9518 54.9094 65.2679 55.6065 64.3047 54.8387L64.4899 53.6263Z" fill="#FFB573"/>
<path id="Vector_125" d="M68.7914 52.1849L68.4378 54.5187L66.956 54.9094L66.8516 52.3768L68.7914 52.1849Z" fill="#FFB573"/>
<path id="Vector_126" d="M58.5748 39.7746C57.0896 40.0373 55.0117 44.2942 55.0117 44.2942L58.7533 47.662C58.7533 47.662 61.7271 44.4154 61.5688 42.4823C61.4341 40.8489 60.4642 39.4378 58.5748 39.7746Z" fill="#EEBDBD"/>
<path id="Vector_127" opacity="0.7" d="M58.5748 39.7746C57.0896 40.0373 55.0117 44.2942 55.0117 44.2942L58.7533 47.662C58.7533 47.662 61.7271 44.4154 61.5688 42.4823C61.4341 40.8489 60.4642 39.4378 58.5748 39.7746Z" fill="white"/>
<path id="Vector_128" d="M48.5496 115.57C48.5105 115.575 48.4709 115.575 48.4317 115.57C48.0579 115.55 47.6605 114.977 47.4551 114.641C47.4487 114.631 47.4453 114.62 47.4453 114.609C47.4453 114.597 47.4487 114.586 47.4551 114.577C47.4612 114.567 47.4705 114.559 47.4814 114.555C47.4924 114.55 47.5044 114.55 47.5157 114.553C47.6369 114.577 48.6843 114.812 48.8157 115.166C48.8293 115.204 48.8328 115.246 48.8257 115.286C48.8186 115.326 48.8012 115.364 48.7753 115.395C48.7214 115.477 48.642 115.538 48.5496 115.57ZM47.6302 114.715C47.9299 115.176 48.2263 115.452 48.4385 115.466C48.4868 115.467 48.5345 115.455 48.577 115.432C48.6195 115.409 48.6553 115.375 48.681 115.334C48.6955 115.32 48.7054 115.301 48.7096 115.281C48.7138 115.26 48.712 115.239 48.7045 115.22C48.6237 115.004 47.9939 114.802 47.6302 114.715Z" fill="#EEBDBD"/>
<path id="Vector_129" d="M48.4421 114.64C48.1315 114.726 47.8057 114.74 47.489 114.681C47.4791 114.678 47.4701 114.672 47.463 114.664C47.456 114.657 47.451 114.647 47.4486 114.637C47.4439 114.628 47.4414 114.618 47.4414 114.608C47.4414 114.599 47.4439 114.589 47.4486 114.58C47.4755 114.556 48.0885 113.957 48.5162 113.987C48.569 113.988 48.621 114.001 48.6678 114.026C48.7146 114.05 48.7549 114.086 48.7856 114.129C48.8224 114.168 48.845 114.218 48.8499 114.272C48.8548 114.326 48.8416 114.38 48.8125 114.425C48.7158 114.535 48.5857 114.611 48.4421 114.64ZM47.6304 114.587C47.9672 114.634 48.597 114.55 48.7283 114.358C48.7486 114.327 48.7654 114.28 48.7048 114.203C48.6844 114.173 48.6573 114.149 48.6257 114.132C48.594 114.115 48.5588 114.106 48.5229 114.105C48.2299 114.085 47.8056 114.428 47.6304 114.587Z" fill="#EEBDBD"/>
<path id="Vector_130" d="M63.7584 119.723C63.4327 119.715 63.1088 119.673 62.7918 119.598C62.7807 119.594 62.7711 119.587 62.7643 119.577C62.7575 119.567 62.7539 119.556 62.7539 119.544C62.7539 119.532 62.7575 119.521 62.7643 119.511C62.7711 119.501 62.7807 119.494 62.7918 119.49C62.9366 119.419 64.2265 118.817 64.5498 119.046C64.5789 119.065 64.6022 119.093 64.617 119.125C64.6318 119.157 64.6377 119.192 64.634 119.227C64.6324 119.293 64.6158 119.358 64.5855 119.416C64.5551 119.475 64.5118 119.525 64.4589 119.564C64.2476 119.689 64.0027 119.744 63.7584 119.723ZM62.9939 119.52C63.3744 119.591 64.0817 119.685 64.3747 119.467C64.4122 119.437 64.4431 119.4 64.4651 119.357C64.4872 119.315 64.5 119.268 64.5026 119.221C64.5056 119.206 64.5039 119.191 64.4979 119.177C64.4919 119.163 64.4818 119.151 64.469 119.143C64.2871 119.019 63.526 119.285 62.9838 119.52H62.9939Z" fill="#EEBDBD"/>
<path id="Vector_131" d="M62.7965 119.591C62.7844 119.594 62.7716 119.594 62.7595 119.591C62.7514 119.584 62.7453 119.574 62.7417 119.563C62.7382 119.553 62.7374 119.542 62.7393 119.531C62.7393 119.477 63.0457 118.207 63.7496 118.288C63.9247 118.311 63.9719 118.396 63.982 118.466C64.0258 118.803 63.2141 119.44 62.8268 119.601L62.7965 119.591ZM63.6789 118.389C63.2343 118.389 62.975 119.13 62.8875 119.426C63.3084 119.204 63.8978 118.675 63.8608 118.47C63.8608 118.453 63.8608 118.406 63.7294 118.392L63.6789 118.389Z" fill="#EEBDBD"/>
<path id="Vector_132" d="M69.3789 30.6985L69.975 30.6109C69.975 30.6109 69.6214 31.0184 69.3789 30.6985Z" fill="#263238"/>
</g>
<g id="E-mails">
<path id="Vector_133" d="M90.0976 58.8734L77.0576 61.5676C76.8345 61.6095 76.604 61.5624 76.4152 61.4366C76.2264 61.3107 76.0943 61.116 76.0472 60.894L75.4377 58.0651L75.2188 57.0211L75.6027 55.8289C75.6561 55.6578 75.7202 55.4902 75.7946 55.3271C75.803 55.3012 75.8143 55.2763 75.8283 55.253C76.0434 54.7624 76.3331 54.308 76.6871 53.9059L77.3607 53.7644L88.5417 51.444C88.7647 51.4021 88.9953 51.4491 89.1841 51.575C89.3729 51.7009 89.5049 51.8956 89.552 52.1176L90.7409 57.8428C90.7896 58.0646 90.7495 58.2966 90.6293 58.4892C90.5091 58.6818 90.3182 58.8197 90.0976 58.8734Z" fill="#EEBDBD"/>
<path id="Vector_134" opacity="0.3" d="M89.4519 51.8145L83.1609 58.2133L81.8138 57.6677L76.5735 55.5427L75.8359 55.2429C76.0511 54.7523 76.3407 54.2979 76.6947 53.8958L77.3683 53.7544L88.5493 51.434C88.7206 51.3997 88.8982 51.4177 89.0591 51.4856C89.22 51.5534 89.3568 51.668 89.4519 51.8145Z" fill="black"/>
<path id="Vector_135" d="M89.4504 51.8145L81.8123 57.6778L81.3138 58.0618L76.5148 55.6807L75.8008 55.344C75.8092 55.3181 75.8205 55.2932 75.8345 55.2699C76.0496 54.7792 76.3393 54.3248 76.6932 53.9227L77.3668 53.7813L88.5479 51.4609C88.7164 51.424 88.8921 51.4378 89.0528 51.5008C89.2134 51.5637 89.3518 51.6729 89.4504 51.8145Z" fill="#EEBDBD"/>
<path id="Vector_136" opacity="0.2" d="M89.4504 51.8145L81.8123 57.6778L81.3138 58.0618L76.5148 55.6807L75.8008 55.344C75.8092 55.3181 75.8205 55.2932 75.8345 55.2699C76.0496 54.7792 76.3393 54.3248 76.6932 53.9227L77.3668 53.7813L88.5479 51.4609C88.7164 51.424 88.8921 51.4378 89.0528 51.5008C89.2134 51.5637 89.3518 51.6729 89.4504 51.8145Z" fill="white"/>
<path id="Vector_137" d="M106.015 70.6842L102.041 74.968C101.884 75.135 101.668 75.2333 101.439 75.2415C101.21 75.2497 100.987 75.1671 100.819 75.0118L91.0723 65.9356C90.9045 65.7792 90.8056 65.5626 90.7974 65.3334C90.7892 65.1042 90.8723 64.8811 91.0285 64.7131L95.016 60.4293C95.0932 60.3453 95.1863 60.2775 95.29 60.2298C95.3936 60.182 95.5057 60.1554 95.6198 60.1513C95.7338 60.1472 95.8475 60.1658 95.9543 60.206C96.0611 60.2462 96.1588 60.3072 96.2418 60.3855L105.985 69.4617C106.111 69.5791 106.199 69.7317 106.238 69.8997C106.277 70.0677 106.265 70.2436 106.204 70.4047C106.162 70.5102 106.097 70.6056 106.015 70.6842Z" fill="#EEBDBD"/>
<path id="Vector_138" opacity="0.3" d="M106.191 70.4215L97.3272 68.9767L95.2695 60.2205C95.4266 60.1482 95.6016 60.1239 95.7724 60.1509C95.9432 60.1779 96.1022 60.2548 96.2293 60.372L105.972 69.4482C106.105 69.568 106.197 69.7259 106.236 69.9002C106.275 70.0744 106.26 70.2565 106.191 70.4215Z" fill="black"/>
<path id="Vector_139" d="M106.191 70.4215L97.5596 67.8486L95.2695 60.2508C95.4266 60.1785 95.6016 60.1543 95.7724 60.1812C95.9432 60.2082 96.1022 60.2852 96.2293 60.4024L105.972 69.4786C106.099 69.596 106.187 69.7486 106.226 69.9166C106.265 70.0846 106.253 70.2604 106.191 70.4215Z" fill="#EEBDBD"/>
<path id="Vector_140" opacity="0.2" d="M106.191 70.4215L97.5596 67.8486L95.2695 60.2508C95.4266 60.1785 95.6016 60.1543 95.7724 60.1812C95.9432 60.2082 96.1022 60.2852 96.2293 60.4024L105.972 69.4786C106.099 69.596 106.187 69.7486 106.226 69.9166C106.265 70.0846 106.253 70.2604 106.191 70.4215Z" fill="white"/>
<path id="Vector_141" d="M109.485 77.7398L113.863 82.8521C113.947 82.9498 114.01 83.0637 114.048 83.1866C114.086 83.3095 114.099 83.4389 114.085 83.5669C114.072 83.6949 114.032 83.8187 113.969 83.9309C113.906 84.0431 113.821 84.1413 113.719 84.2194L104.208 91.6285C104.048 91.7247 103.858 91.758 103.675 91.7219C103.492 91.6858 103.329 91.5829 103.218 91.4332L99.7929 87.5265C99.7285 87.4514 99.6752 87.3675 99.6346 87.2773C99.571 87.1534 99.5445 87.0138 99.5582 86.8752C99.572 86.7367 99.6254 86.605 99.712 86.496L108.132 77.7027C108.263 77.5604 108.437 77.4639 108.627 77.4275C108.817 77.3912 109.014 77.4168 109.189 77.5006C109.302 77.5608 109.403 77.642 109.485 77.7398Z" fill="#EEBDBD"/>
<path id="Vector_142" opacity="0.3" d="M109.187 77.5107L107.096 86.8126L99.6463 87.2874C99.5827 87.1635 99.5562 87.0239 99.5699 86.8853C99.5837 86.7468 99.6371 86.6151 99.7238 86.5061L108.143 77.7128C108.274 77.5734 108.445 77.4788 108.632 77.4425C108.82 77.4062 109.014 77.4301 109.187 77.5107Z" fill="black"/>
<path id="Vector_143" d="M109.186 77.5107L105.68 87.3816L99.6385 87.2874C99.5749 87.1635 99.5484 87.0239 99.5621 86.8853C99.5759 86.7467 99.6293 86.615 99.716 86.506L108.135 77.7127C108.266 77.5719 108.439 77.4763 108.628 77.44C108.817 77.4037 109.012 77.4284 109.186 77.5107Z" fill="#EEBDBD"/>
<path id="Vector_144" opacity="0.2" d="M109.186 77.5107L105.68 87.3816L99.6385 87.2874C99.5749 87.1635 99.5484 87.0239 99.5621 86.8853C99.5759 86.7467 99.6293 86.615 99.716 86.506L108.135 77.7127C108.266 77.5719 108.439 77.4763 108.628 77.44C108.817 77.4037 109.012 77.4284 109.186 77.5107Z" fill="white"/>
</g>
</g>
</svg>
