<svg width="168" height="138" viewBox="0 0 168 138" fill="none" xmlns="http://www.w3.org/2000/svg">
<g id="heartbroken/bro">
<g id="Plants">
<path id="Vector" d="M29.9367 78.0456C29.9367 78.0456 29.9367 76.4875 27.7568 74.3114C25.5769 72.1354 24.18 70.8881 24.18 70.8881C24.18 70.8881 23.0901 74.465 25.1126 76.6448C26.6008 78.1763 28.2145 79.5807 29.9367 80.8434V78.0456Z" fill="#6E989D"/>
<path id="Vector_2" d="M26.7749 87.7437C26.7749 87.7437 26.7749 86.2086 24.5951 84.0096C22.4152 81.8105 21.0182 80.5901 21.0182 80.5901C21.0182 80.5901 19.9283 84.1861 21.9623 86.3468C23.4506 87.8783 25.0643 89.2827 26.7864 90.5453L26.7749 87.7437Z" fill="#6E989D"/>
<path id="Vector_3" d="M29.7995 80.6784C29.7995 80.6784 29.9645 79.1433 32.3593 77.1937C34.7541 75.2441 36.2815 74.1695 36.2815 74.1695C36.2815 74.1695 36.9838 77.8423 34.7464 79.7957C33.1057 81.1628 31.3534 82.3901 29.5078 83.4646L29.7995 80.6784Z" fill="#6E989D"/>
<path id="Vector_4" d="M25.9779 92.1534C25.9779 92.1534 26.3042 90.6183 28.8908 88.9604C31.4775 87.3024 33.1124 86.3622 33.1124 86.3622C33.1124 86.3622 33.4271 90.0887 30.994 91.7965C29.218 92.9824 27.3464 94.0184 25.3984 94.8936L25.9779 92.1534Z" fill="#6E989D"/>
<path id="Vector_5" d="M26.6953 104.665C26.6953 104.665 26.6953 103.11 28.8752 100.93C31.0551 98.7505 32.452 97.5071 32.452 97.5071C32.452 97.5071 33.542 101.088 31.5194 103.264C30.0326 104.804 28.4189 106.216 26.6953 107.485V104.665Z" fill="#6E989D"/>
<path id="Vector_6" d="M26.663 107.719C26.663 107.719 26.8817 106.184 25.0357 103.713C23.1897 101.241 21.9655 99.8174 21.9655 99.8174C21.9655 99.8174 20.3766 103.202 22.0691 105.647C23.3239 107.376 24.722 108.996 26.2485 110.49L26.663 107.719Z" fill="#6E989D"/>
<path id="Vector_7" d="M24.5117 116.769C24.5117 116.769 24.5117 115.234 26.6878 113.035C28.8638 110.836 30.2684 109.611 30.2684 109.611C30.2684 109.611 31.3584 113.192 29.3358 115.368C27.8483 116.902 26.2345 118.307 24.5117 119.571V116.769Z" fill="#6E989D"/>
<path id="Vector_8" d="M25.9684 124.974C25.9684 124.974 25.5846 123.47 27.1198 120.81C28.6549 118.151 29.718 116.589 29.718 116.589C29.718 116.589 31.6752 119.778 30.2706 122.395C29.2206 124.254 28.0164 126.022 26.6707 127.68L25.9684 124.974Z" fill="#6E989D"/>
<path id="Vector_9" d="M30.1356 77.6312C30.0262 79.2502 29.8276 80.862 29.5407 82.4591C28.6772 86.911 26.5242 89.7778 25.6645 93.796C24.8049 97.8142 27.2764 103.007 26.6125 108.153C25.9485 113.3 23.926 116.186 24.517 119.628C25.1081 123.071 28.1898 132.596 28.1898 132.596" stroke="#263238" stroke-width="1.09196" stroke-linecap="round" stroke-linejoin="round"/>
<path id="Vector_10" d="M29.7734 81.7106L32.1222 79.9107" stroke="#263238" stroke-width="1.09196" stroke-linecap="round" stroke-linejoin="round"/>
<path id="Vector_11" d="M29.8848 79.6383L28.9023 77.8921" stroke="#263238" stroke-width="1.09196" stroke-linecap="round" stroke-linejoin="round"/>
<path id="Vector_12" d="M25.8008 93.6117C25.8008 93.6117 27.7657 92.138 29.7844 90.6643" stroke="#263238" stroke-width="1.09196" stroke-linecap="round" stroke-linejoin="round"/>
<path id="Vector_13" d="M26.7776 90.5454C26.7776 90.5454 25.1388 87.337 23.2852 85.207" stroke="#263238" stroke-width="1.09196" stroke-linecap="round" stroke-linejoin="round"/>
<path id="Vector_14" d="M26.7773 106.879C27.8988 104.812 29.3144 102.918 30.9797 101.257" stroke="#263238" stroke-width="1.09196" stroke-linecap="round" stroke-linejoin="round"/>
<path id="Vector_15" d="M26.3956 109.063C25.7976 107.66 25.0852 106.308 24.2657 105.022C23.1143 103.329 22.9531 103.103 22.9531 103.103" stroke="#263238" stroke-width="1.09196" stroke-linecap="round" stroke-linejoin="round"/>
<path id="Vector_16" d="M24.5117 119.628C25.0085 118.388 25.6 117.189 26.2809 116.04C26.9644 114.976 27.7345 113.971 28.5836 113.035" stroke="#263238" stroke-width="1.09196" stroke-linecap="round" stroke-linejoin="round"/>
<path id="Vector_17" d="M26.676 127.684C26.5608 126.501 26.7635 125.308 27.2631 124.23C28.0806 122.649 29.0093 120.572 29.3931 119.755" stroke="#263238" stroke-width="1.09196" stroke-linecap="round" stroke-linejoin="round"/>
<path id="Vector_18" d="M12.1582 98.8157C12.1582 98.8157 11.9816 97.8371 13.133 96.2367C14.2843 94.6364 15.0058 93.7 15.0058 93.7C15.0058 93.7 16.0766 95.8261 15.0442 97.4111C14.2788 98.5343 13.4199 99.5909 12.4767 100.57L12.1582 98.8157Z" fill="#6E989D"/>
<path id="Vector_19" d="M15.1964 104.565C15.1964 104.565 15.0275 103.59 16.1597 101.986C17.2919 100.382 18.0325 99.4529 18.0325 99.4529C18.0325 99.4529 19.1033 101.575 18.0709 103.164C17.3047 104.285 16.4458 105.341 15.5034 106.319L15.1964 104.565Z" fill="#6E989D"/>
<path id="Vector_20" d="M12.5322 100.462C12.5322 100.462 12.2636 99.5104 10.5481 98.5433C8.83257 97.5762 7.76182 97.0811 7.76182 97.0811C7.76182 97.0811 7.71961 99.4644 9.33532 100.443C10.5128 101.122 11.7452 101.701 13.0196 102.174L12.5322 100.462Z" fill="#6E989D"/>
<path id="Vector_21" d="M16.1747 107.244C16.1747 107.244 15.7909 106.322 14.0025 105.555C12.214 104.787 11.0742 104.384 11.0742 104.384C11.0742 104.384 11.2815 106.756 12.9931 107.562C14.233 108.113 15.5167 108.56 16.8309 108.898L16.1747 107.244Z" fill="#6E989D"/>
<path id="Vector_22" d="M17.0851 115.165C17.0851 115.165 16.9124 114.19 15.312 113.062C13.7117 111.933 12.6946 111.304 12.6946 111.304C12.6946 111.304 12.403 113.664 13.9074 114.812C15.0064 115.612 16.1708 116.318 17.3883 116.923L17.0851 115.165Z" fill="#6E989D"/>
<path id="Vector_23" d="M17.4418 117.076C17.4418 117.076 17.1348 116.136 18.0251 114.39C18.9155 112.643 19.518 111.615 19.518 111.615C19.518 111.615 20.8804 113.564 20.086 115.28C19.4863 116.501 18.7854 117.669 17.9906 118.772L17.4418 117.076Z" fill="#6E989D"/>
<path id="Vector_24" d="M20.1682 124.947C20.1682 124.947 20.2834 123.965 21.8185 122.745C23.3536 121.524 24.3284 120.826 24.3284 120.826C24.3284 120.826 24.7583 123.167 23.3191 124.395C22.2678 125.255 21.1457 126.026 19.9648 126.697L20.1682 124.947Z" fill="#6E989D"/>
<path id="Vector_25" d="M19.7617 122.518C19.7617 122.518 19.5928 121.543 17.9886 120.415C16.3844 119.287 15.3751 118.657 15.3751 118.657C15.3751 118.657 15.0796 121.029 16.584 122.18C17.683 122.98 18.8474 123.686 20.0649 124.291L19.7617 122.518Z" fill="#6E989D"/>
<path id="Vector_26" d="M19.7422 127.822C19.7422 127.822 19.8266 126.836 18.564 125.339C17.3014 123.842 16.4762 122.975 16.4762 122.975C16.4762 122.975 15.5935 125.185 16.7602 126.674C17.6208 127.727 18.5682 128.705 19.5925 129.599L19.7422 127.822Z" fill="#6E989D"/>
<path id="Vector_27" d="M11.9844 98.5854C12.23 99.589 12.5311 100.578 12.8863 101.548C13.9071 104.235 15.5727 105.812 16.5437 108.238C17.5146 110.663 16.5437 114.178 17.507 117.345C18.4703 120.511 20.0553 122.092 20.0706 124.314C20.086 126.536 19.2762 132.542 19.2762 132.542" stroke="#263238" stroke-width="1.09196" stroke-linecap="round" stroke-linejoin="round"/>
<path id="Vector_28" d="M12.6578 101.107L10.9922 100.232" stroke="#263238" stroke-width="1.09196" stroke-linecap="round" stroke-linejoin="round"/>
<path id="Vector_29" d="M12.3711 99.8174L12.7971 98.6161" stroke="#263238" stroke-width="1.09196" stroke-linecap="round" stroke-linejoin="round"/>
<path id="Vector_30" d="M16.4497 108.138C16.4497 108.138 15.0566 107.428 13.6289 106.722" stroke="#263238" stroke-width="1.09196" stroke-linecap="round" stroke-linejoin="round"/>
<path id="Vector_31" d="M15.5039 106.319C15.9126 105.03 16.4514 103.787 17.1119 102.607" stroke="#263238" stroke-width="1.09196" stroke-linecap="round" stroke-linejoin="round"/>
<path id="Vector_32" d="M17.278 116.562C16.3491 115.387 15.2556 114.353 14.0312 113.492" stroke="#263238" stroke-width="1.09196" stroke-linecap="round" stroke-linejoin="round"/>
<path id="Vector_33" d="M17.7422 117.89C17.9635 116.945 18.2626 116.021 18.6364 115.126C19.1737 113.941 19.2504 113.787 19.2504 113.787" stroke="#263238" stroke-width="1.09196" stroke-linecap="round" stroke-linejoin="round"/>
<path id="Vector_34" d="M20 126.018C20.5413 125.346 21.1411 124.723 21.7923 124.157C22.2021 123.85 22.5871 123.511 22.9436 123.144" stroke="#263238" stroke-width="1.09196" stroke-linecap="round" stroke-linejoin="round"/>
<path id="Vector_35" d="M20.0785 124.314C19.632 123.592 19.1303 122.906 18.578 122.261C18.0361 121.675 17.4469 121.135 16.8164 120.645" stroke="#263238" stroke-width="1.09196" stroke-linecap="round" stroke-linejoin="round"/>
<path id="Vector_36" d="M19.5949 129.599C19.5385 128.846 19.2814 128.123 18.8504 127.503C18.1672 126.598 17.3575 125.396 17.0312 124.924" stroke="#263238" stroke-width="1.09196" stroke-linecap="round" stroke-linejoin="round"/>
</g>
<g id="Lamp">
<path id="Vector_37" d="M161.06 103.421H125.02V106.495H161.06V103.421Z" stroke="#263238" stroke-width="1.09196" stroke-linecap="round" stroke-linejoin="round"/>
<path id="Vector_38" d="M159.389 106.533H126.691V132.719H159.389V106.533Z" stroke="#263238" stroke-width="1.09196" stroke-linecap="round" stroke-linejoin="round"/>
<path id="Vector_39" d="M158.212 108.241H127.828V116.205H158.212V108.241Z" stroke="#263238" stroke-width="1.09196" stroke-linecap="round" stroke-linejoin="round"/>
<path id="Vector_40" d="M144.489 111.488H141.449V112.954H144.489V111.488Z" stroke="#263238" stroke-width="1.09196" stroke-linecap="round" stroke-linejoin="round"/>
<path id="Vector_41" d="M158.212 118.3H127.828V126.264H158.212V118.3Z" stroke="#263238" stroke-width="1.09196" stroke-linecap="round" stroke-linejoin="round"/>
<path id="Vector_42" d="M144.489 121.547H141.449V123.013H144.489V121.547Z" stroke="#263238" stroke-width="1.09196" stroke-linecap="round" stroke-linejoin="round"/>
<path id="Vector_43" d="M144.172 82.1403H129.086V96.9465H144.172V82.1403Z" fill="#263238" stroke="#263238" stroke-width="1.09196" stroke-linecap="round" stroke-linejoin="round"/>
<path id="Vector_44" d="M137.607 102.688V96.3901H135.653V102.688H132.859V103.375H135.653H137.607H140.401V102.688H137.607Z" stroke="#263238" stroke-width="1.09196" stroke-linecap="round" stroke-linejoin="round"/>
<path id="Vector_45" d="M130.031 82.6776V96.0869" stroke="#5C5C5C" stroke-width="1.09196" stroke-linecap="round" stroke-linejoin="round"/>
<path id="Vector_46" d="M132.543 82.6776V96.0869" stroke="#5C5C5C" stroke-width="1.09196" stroke-linecap="round" stroke-linejoin="round"/>
<path id="Vector_47" d="M136.633 82.6776V96.0869" stroke="#5C5C5C" stroke-width="1.09196" stroke-linecap="round" stroke-linejoin="round"/>
<path id="Vector_48" d="M141.449 82.6776V96.0869" stroke="#5C5C5C" stroke-width="1.09196" stroke-linecap="round" stroke-linejoin="round"/>
</g>
<g id="Picture">
<path id="Vector_49" d="M151.131 40.7996H126.523V73.8431H151.131V40.7996Z" stroke="#263238" stroke-width="1.09196" stroke-linecap="round" stroke-linejoin="round"/>
<path id="Vector_50" d="M148.774 43.962H128.879V70.6807H148.774V43.962Z" stroke="#263238" stroke-width="1.09196" stroke-linecap="round" stroke-linejoin="round"/>
</g>
<g id="Door">
<path id="Vector_51" d="M121.72 32.1724H73.6328V132.719H121.72V32.1724Z" stroke="#263238" stroke-width="1.09196" stroke-linecap="round" stroke-linejoin="round"/>
<path id="Vector_52" d="M95.485 36.9235H78V63.1549H95.485V36.9235Z" stroke="#263238" stroke-width="1.09196" stroke-linecap="round" stroke-linejoin="round"/>
<path id="Vector_53" d="M92.9809 40.6962H80.5195V59.3863H92.9809V40.6962Z" stroke="#263238" stroke-width="1.09196" stroke-linecap="round" stroke-linejoin="round"/>
<path id="Vector_54" d="M80.5138 40.6961L78 36.9235" stroke="#263238" stroke-width="1.09196" stroke-linecap="round" stroke-linejoin="round"/>
<path id="Vector_55" d="M92.9727 40.6961L95.4864 36.9235" stroke="#263238" stroke-width="1.09196" stroke-linecap="round" stroke-linejoin="round"/>
<path id="Vector_56" d="M92.9727 59.3862L95.4864 63.1549" stroke="#263238" stroke-width="1.09196" stroke-linecap="round" stroke-linejoin="round"/>
<path id="Vector_57" d="M80.5138 59.3862L78 63.1549" stroke="#263238" stroke-width="1.09196" stroke-linecap="round" stroke-linejoin="round"/>
<path id="Vector_58" d="M116.505 36.9235H99.0195V63.1549H116.505V36.9235Z" stroke="#263238" stroke-width="1.09196" stroke-linecap="round" stroke-linejoin="round"/>
<path id="Vector_59" d="M113.996 40.6962H101.535V59.3863H113.996V40.6962Z" stroke="#263238" stroke-width="1.09196" stroke-linecap="round" stroke-linejoin="round"/>
<path id="Vector_60" d="M101.533 40.6961L99.0195 36.9235" stroke="#263238" stroke-width="1.09196" stroke-linecap="round" stroke-linejoin="round"/>
<path id="Vector_61" d="M113.992 40.6961L116.506 36.9235" stroke="#263238" stroke-width="1.09196" stroke-linecap="round" stroke-linejoin="round"/>
<path id="Vector_62" d="M113.992 59.3862L116.506 63.1549" stroke="#263238" stroke-width="1.09196" stroke-linecap="round" stroke-linejoin="round"/>
<path id="Vector_63" d="M101.533 59.3862L99.0195 63.1549" stroke="#263238" stroke-width="1.09196" stroke-linecap="round" stroke-linejoin="round"/>
<path id="Vector_64" d="M95.485 69.9171H78V96.1485H95.485V69.9171Z" stroke="#263238" stroke-width="1.09196" stroke-linecap="round" stroke-linejoin="round"/>
<path id="Vector_65" d="M92.9809 73.6859H80.5195V92.3759H92.9809V73.6859Z" stroke="#263238" stroke-width="1.09196" stroke-linecap="round" stroke-linejoin="round"/>
<path id="Vector_66" d="M80.5138 73.6858L78 69.9171" stroke="#263238" stroke-width="1.09196" stroke-linecap="round" stroke-linejoin="round"/>
<path id="Vector_67" d="M92.9727 73.6858L95.4864 69.9171" stroke="#263238" stroke-width="1.09196" stroke-linecap="round" stroke-linejoin="round"/>
<path id="Vector_68" d="M92.9727 92.3759L95.4864 96.1485" stroke="#263238" stroke-width="1.09196" stroke-linecap="round" stroke-linejoin="round"/>
<path id="Vector_69" d="M80.5138 92.3759L78 96.1485" stroke="#263238" stroke-width="1.09196" stroke-linecap="round" stroke-linejoin="round"/>
<path id="Vector_70" d="M116.505 69.9171H99.0195V96.1485H116.505V69.9171Z" stroke="#263238" stroke-width="1.09196" stroke-linecap="round" stroke-linejoin="round"/>
<path id="Vector_71" d="M113.996 73.6859H101.535V92.3759H113.996V73.6859Z" stroke="#263238" stroke-width="1.09196" stroke-linecap="round" stroke-linejoin="round"/>
<path id="Vector_72" d="M101.533 73.6858L99.0195 69.9171" stroke="#263238" stroke-width="1.09196" stroke-linecap="round" stroke-linejoin="round"/>
<path id="Vector_73" d="M113.992 73.6858L116.506 69.9171" stroke="#263238" stroke-width="1.09196" stroke-linecap="round" stroke-linejoin="round"/>
<path id="Vector_74" d="M113.992 92.3759L116.506 96.1485" stroke="#263238" stroke-width="1.09196" stroke-linecap="round" stroke-linejoin="round"/>
<path id="Vector_75" d="M101.533 92.3759L99.0195 96.1485" stroke="#263238" stroke-width="1.09196" stroke-linecap="round" stroke-linejoin="round"/>
<path id="Vector_76" d="M95.485 103.413H78V129.645H95.485V103.413Z" stroke="#263238" stroke-width="1.09196" stroke-linecap="round" stroke-linejoin="round"/>
<path id="Vector_77" d="M92.9809 107.182H80.5195V125.872H92.9809V107.182Z" stroke="#263238" stroke-width="1.09196" stroke-linecap="round" stroke-linejoin="round"/>
<path id="Vector_78" d="M80.5138 107.182L78 103.413" stroke="#263238" stroke-width="1.09196" stroke-linecap="round" stroke-linejoin="round"/>
<path id="Vector_79" d="M92.9727 107.182L95.4864 103.413" stroke="#263238" stroke-width="1.09196" stroke-linecap="round" stroke-linejoin="round"/>
<path id="Vector_80" d="M92.9727 125.872L95.4864 129.641" stroke="#263238" stroke-width="1.09196" stroke-linecap="round" stroke-linejoin="round"/>
<path id="Vector_81" d="M80.5138 125.872L78 129.641" stroke="#263238" stroke-width="1.09196" stroke-linecap="round" stroke-linejoin="round"/>
<path id="Vector_82" d="M116.505 103.413H99.0195V129.645H116.505V103.413Z" stroke="#263238" stroke-width="1.09196" stroke-linecap="round" stroke-linejoin="round"/>
<path id="Vector_83" d="M113.996 107.182H101.535V125.872H113.996V107.182Z" stroke="#263238" stroke-width="1.09196" stroke-linecap="round" stroke-linejoin="round"/>
<path id="Vector_84" d="M101.533 107.182L99.0195 103.413" stroke="#263238" stroke-width="1.09196" stroke-linecap="round" stroke-linejoin="round"/>
<path id="Vector_85" d="M113.992 107.182L116.506 103.413" stroke="#263238" stroke-width="1.09196" stroke-linecap="round" stroke-linejoin="round"/>
<path id="Vector_86" d="M113.992 125.872L116.506 129.641" stroke="#263238" stroke-width="1.09196" stroke-linecap="round" stroke-linejoin="round"/>
<path id="Vector_87" d="M101.533 125.872L99.0195 129.641" stroke="#263238" stroke-width="1.09196" stroke-linecap="round" stroke-linejoin="round"/>
<path id="Vector_88" d="M118.52 85.3335C119.474 85.3335 120.247 84.5603 120.247 83.6065C120.247 82.6527 119.474 81.8795 118.52 81.8795C117.566 81.8795 116.793 82.6527 116.793 83.6065C116.793 84.5603 117.566 85.3335 118.52 85.3335Z" stroke="#263238" stroke-width="1.09196" stroke-linecap="round" stroke-linejoin="round"/>
</g>
<g id="Character">
<path id="Vector_89" d="M166.88 132.719H1.39453" stroke="#263238" stroke-width="1.09196" stroke-linecap="round" stroke-linejoin="round"/>
<path id="Vector_90" d="M55.8125 90.3495H95.5913C97.1028 90.3495 98.5524 90.95 99.6212 92.0188C100.69 93.0876 101.29 94.5372 101.29 96.0487V132.723H50.1172V96.0448C50.1182 94.5347 50.7186 93.0866 51.7864 92.0188C52.8543 90.9509 54.3023 90.3506 55.8125 90.3495Z" fill="#263238" stroke="#263238" stroke-width="1.09196" stroke-miterlimit="10"/>
<path id="Vector_91" d="M52.6638 90.3496H92.4272C93.9387 90.3496 95.3883 90.95 96.4571 92.0188C97.5259 93.0876 98.1263 94.5372 98.1263 96.0487V132.723H46.9531V96.0449C46.9536 95.2958 47.1018 94.5542 47.3891 93.8624C47.6765 93.1707 48.0974 92.5423 48.6278 92.0134C49.1582 91.4844 49.7876 91.0652 50.4802 90.7797C51.1727 90.4942 51.9147 90.348 52.6638 90.3496Z" fill="#787878" stroke="#263238" stroke-width="1.09196" stroke-miterlimit="10"/>
<path id="Vector_92" d="M63.6915 60.6566C63.6915 60.6566 58.8405 59.3901 59.3663 54.4317C59.8921 49.4732 63.6915 47.7846 66.543 47.255C69.3945 46.7254 73.5086 46.7292 73.5086 46.7292C73.5086 46.7292 72.6643 45.0406 75.9341 44.722C79.2039 44.4035 88.2803 47.5735 91.8686 54.0095C95.457 60.4455 94.7163 71.1031 93.1351 74.5878C91.5539 78.0725 90.0649 85.2454 93.0277 87.6708C95.9904 90.0963 101.578 92.7368 100.734 99.4913C99.8896 106.246 92.5019 106.445 92.8166 110.041C93.1313 113.637 100.204 116.27 98.4121 122.495C96.6198 128.72 86.0659 129.672 78.8892 125.661C71.7125 121.651 73.4011 108.671 71.1867 101.483C68.9723 94.2949 60.5253 93.1589 59.2589 87.2564C57.9924 81.3538 62.3291 78.391 64.4322 73.4403C66.5353 68.4895 63.6915 60.6566 63.6915 60.6566Z" fill="#263238" stroke="#263238" stroke-width="1.09196" stroke-linecap="round" stroke-linejoin="round"/>
<path id="Vector_93" d="M73.5074 46.7292C73.5074 46.7292 59.9408 45.8158 55.0859 52.5166" stroke="#263238" stroke-width="1.09196" stroke-linecap="round" stroke-linejoin="round"/>
<path id="Vector_94" d="M89.0938 50.6744C89.0938 50.6744 97.4717 57.0413 97.8055 66.7586C98.1394 76.4759 93.9678 79.8071 93.2808 84.1822C92.5938 88.5573 96.1323 91.048 96.1323 91.048" stroke="#263238" stroke-width="1.09196" stroke-linecap="round" stroke-linejoin="round"/>
<path id="Vector_95" d="M90.6016 52.8504C90.6016 52.8504 97.8051 59.3747 98.9795 68.4319C100.154 77.4891 98.9795 78.6519 98.9795 78.6519" stroke="#263238" stroke-width="1.09196" stroke-linecap="round" stroke-linejoin="round"/>
<path id="Vector_96" d="M39.2089 108.882C39.2089 108.882 34.7762 115.637 33.7208 118.273C32.6654 120.91 32.7729 123.021 35.5169 123.646C38.261 124.272 42.4825 121.029 43.8411 119.54C45.1997 118.051 47.7442 113.419 47.7442 113.419L39.2089 108.882Z" fill="white" stroke="#263238" stroke-width="1.09196" stroke-linecap="round" stroke-linejoin="round"/>
<path id="Vector_97" d="M68.0185 85.9822C68.0185 85.9822 57.0424 85.8785 54.2024 86.8265C51.3625 87.7744 37.7383 108.775 37.7383 108.775L47.2368 115.004L51.351 110.463C51.351 110.463 52.5023 116.27 52.5023 118.17C52.5023 120.069 51.1284 132.753 51.1284 132.753H82.7864C82.7864 132.753 83.316 120.914 85.0891 117.644C86.8621 114.374 89.3106 109.942 89.3106 109.942L98.2796 115.744L103.894 102.224C103.894 102.224 89.6484 90.9444 86.0562 89.3594C82.464 87.7744 68.0185 85.9822 68.0185 85.9822Z" fill="#6E989D" stroke="#263238" stroke-width="1.09196" stroke-linecap="round" stroke-linejoin="round"/>
<path id="Vector_98" d="M51.3438 110.464C51.3438 110.464 51.7275 107.067 52.2073 103.901C52.687 100.735 54.6404 96.8394 54.6404 96.8394" stroke="#263238" stroke-width="1.09196" stroke-linecap="round" stroke-linejoin="round"/>
<path id="Vector_99" d="M89.3322 109.938L83.8672 106.825" stroke="#263238" stroke-width="1.09196" stroke-linecap="round" stroke-linejoin="round"/>
<path id="Vector_100" d="M88.2537 109.75C88.2537 109.75 83.372 109.262 81.4531 108.529" stroke="#263238" stroke-width="1.09196" stroke-linecap="round" stroke-linejoin="round"/>
<path id="Vector_101" d="M54.2305 105.382L72.9321 137.198L73.6843 136.768L75.0851 107.746L54.2305 105.382Z" fill="#263238" stroke="#263238" stroke-width="1.09196" stroke-linecap="round" stroke-linejoin="round"/>
<path id="Vector_102" d="M53.4771 105.382L51.9727 133.759L72.9309 137.198L74.3278 107.746L53.4771 105.382Z" fill="#575757" stroke="#263238" stroke-width="1.09196" stroke-linecap="round" stroke-linejoin="round"/>
<path id="Vector_103" d="M61.2143 114.624L65.5165 115.161L64.7643 133.007L57.0234 131.717L61.2143 114.624Z" fill="#263238" stroke="#263238" stroke-width="1.09196" stroke-linecap="round" stroke-linejoin="round"/>
<path id="Vector_104" d="M68.0178 85.9822C68.0178 85.9822 65.2008 85.9553 62.0538 86.0512C61.6755 89.1436 61.5869 92.2645 61.789 95.3733C62.2112 100.439 63.2666 101.18 66.1181 100.336C68.9695 99.4912 74.7685 92.3145 76.4571 89.7816C76.971 89.0336 77.4265 88.2471 77.8195 87.429C72.9839 86.6001 68.0178 85.9822 68.0178 85.9822Z" fill="white" stroke="#263238" stroke-width="1.09196" stroke-linecap="round" stroke-linejoin="round"/>
<path id="Vector_105" d="M64.1139 80.6016C64.1139 80.6016 63.5497 93.6885 63.6533 95.3771C63.757 97.0657 66.121 98.858 67.8097 97.5915C69.4983 96.325 74.5757 88.7147 75.1015 87.3408C75.6273 85.9668 76.2528 79.7573 76.2528 79.7573C76.2528 79.7573 71.7166 82.5013 68.6578 82.1828C65.5991 81.8642 64.1139 80.6016 64.1139 80.6016Z" fill="white" stroke="#263238" stroke-width="1.09196" stroke-linecap="round" stroke-linejoin="round"/>
<g id="Vector_106">
<path d="M35.6193 115.848C34.0381 117.851 32.3495 120.384 32.8753 122.284C33.4011 124.184 35.9455 125.028 41.5295 124.92C47.1135 124.813 62.6374 125.239 62.9521 125.343C63.2668 125.446 74.3465 126.494 74.7687 126.494C75.1909 126.494 77.5127 125.542 78.146 124.698C78.7792 123.854 79.2973 120.584 79.2973 120.584C79.2973 120.584 80.8785 119.003 80.9859 117.736C81.0022 117.349 80.924 116.965 80.7582 116.615C80.5924 116.265 80.3439 115.961 80.0342 115.729C80.0101 115.051 79.9045 114.378 79.7195 113.726C79.4009 112.574 77.0791 113.092 75.8126 112.881C74.5461 112.67 72.6502 112.248 71.9095 112.985C71.1688 113.722 65.0514 119.003 65.0514 119.003C65.0514 119.003 55.5528 118.262 49.539 116.047C43.5252 113.833 40.1479 113.407 37.7186 115.729" fill="white"/>
<path d="M35.6193 115.848C34.0381 117.851 32.3495 120.384 32.8753 122.284C33.4011 124.184 35.9455 125.028 41.5295 124.92C47.1135 124.813 62.6374 125.239 62.9521 125.343C63.2668 125.446 74.3465 126.494 74.7687 126.494C75.1909 126.494 77.5127 125.542 78.146 124.698C78.7792 123.854 79.2973 120.584 79.2973 120.584C79.2973 120.584 80.8785 119.003 80.9859 117.736C81.0022 117.349 80.924 116.965 80.7582 116.615C80.5924 116.265 80.3439 115.961 80.0342 115.729C80.0101 115.051 79.9045 114.378 79.7195 113.726C79.4009 112.574 77.0791 113.092 75.8126 112.881C74.5461 112.67 72.6502 112.248 71.9095 112.985C71.1688 113.722 65.0514 119.003 65.0514 119.003C65.0514 119.003 55.5528 118.262 49.539 116.047C43.5252 113.833 40.1479 113.407 37.7186 115.729" stroke="#263238" stroke-width="1.09196" stroke-linecap="round" stroke-linejoin="round"/>
</g>
<path id="Vector_107" d="M80.0487 115.741L74.457 114.474" stroke="#263238" stroke-width="1.09196" stroke-linecap="round" stroke-linejoin="round"/>
<path id="Vector_108" d="M59.8118 62.6177C59.8118 62.6177 56.7415 60.8293 56.2349 62.6177C55.7283 64.4061 59.8118 62.6177 59.8118 62.6177Z" fill="white" stroke="#263238" stroke-width="1.09196" stroke-linecap="round" stroke-linejoin="round"/>
<path id="Vector_109" d="M59.4298 64.1528C59.4298 64.1528 56.7434 66.1945 58.2785 66.325C59.8136 66.4555 59.4298 64.1528 59.4298 64.1528Z" fill="white" stroke="#263238" stroke-width="1.09196" stroke-linecap="round" stroke-linejoin="round"/>
<path id="Vector_110" d="M76.3152 54.0402C76.3152 54.0402 63.3588 58.2963 63.1746 59.4131C62.9904 60.5299 59.475 69.0383 60.2157 74.96C60.9563 80.8817 65.5272 83.3226 69.5991 83.668C74.5575 84.0901 79.8345 77.4431 79.8345 77.4431C79.8345 77.4431 82.5747 76.3877 84.0561 75.6508C85.5374 74.914 85.7217 72.8722 85.7217 72.8722C85.7217 72.8722 82.0527 70.1474 78.9057 64.7822C77.0167 61.5293 76.1165 57.7965 76.3152 54.0402Z" fill="white" stroke="#263238" stroke-width="1.09196" stroke-linecap="round" stroke-linejoin="round"/>
<path id="Vector_111" d="M69.8325 61.8117C69.9081 63.1103 69.5855 64.4011 68.9075 65.5113C68.2537 66.4983 67.2702 67.2207 66.1328 67.5492C66.1328 67.5492 66.317 69.5833 67.7984 69.5833" stroke="#263238" stroke-width="1.09196" stroke-linecap="round" stroke-linejoin="round"/>
<path id="Vector_112" d="M64.2227 64.2295C64.2227 64.2295 65.7002 62.7519 67.811 64.5442" stroke="#263238" stroke-width="2.18392" stroke-linecap="round" stroke-linejoin="round"/>
<path id="Vector_113" d="M72.7656 65.9335C72.7656 65.9335 75.7207 65.615 76.4576 67.6222" stroke="#263238" stroke-width="2.18392" stroke-linecap="round" stroke-linejoin="round"/>
<path id="Vector_114" d="M68.6472 72.1584C68.6472 72.1584 66.3253 71.3141 64.4256 72.5806C62.5259 73.8471 62.1037 75.8542 63.1591 76.4875C64.2145 77.1207 66.0068 74.4803 67.2733 76.0653C68.5397 77.6503 70.6505 80.1795 71.4948 77.7501C72.3392 75.3208 70.3358 72.5806 68.6472 72.1584Z" fill="#263238" stroke="#263238" stroke-width="1.09196" stroke-linecap="round" stroke-linejoin="round"/>
<path id="Vector_115" d="M67.5586 76.4108C68.8366 77.9804 70.7171 80.0068 71.5 77.7502C71.5796 77.5175 71.6336 77.2768 71.6612 77.0325C70.3448 76.8943 68.9172 76.6756 67.5586 76.4108Z" fill="white" stroke="#263238" stroke-width="1.09196" stroke-linecap="round" stroke-linejoin="round"/>
<path id="Vector_116" d="M70.5514 73.5208C70.0752 72.8802 69.4112 72.4039 68.6517 72.1584C68.6517 72.1584 66.5217 71.3909 64.6719 72.4386C66.6011 72.9494 68.5667 73.3112 70.5514 73.5208Z" fill="white" stroke="#263238" stroke-width="1.09196" stroke-linecap="round" stroke-linejoin="round"/>
<path id="Vector_117" d="M62.6048 75.2594C62.5734 75.4961 62.6093 75.7368 62.7084 75.954C62.8075 76.1713 62.9658 76.3561 63.1651 76.4875C63.7024 76.806 64.4278 76.2841 65.18 75.9003C64.1323 75.6585 63.2304 75.4244 62.6048 75.2594Z" fill="white" stroke="#263238" stroke-width="1.09196" stroke-linecap="round" stroke-linejoin="round"/>
<path id="Vector_118" d="M69.3968 60.8561C69.3968 60.8561 69.2779 60.1307 67.712 60.1307C66.1462 60.1307 63.6133 62.0496 63.6133 62.0496" stroke="#263238" stroke-width="1.09196" stroke-linecap="round" stroke-linejoin="round"/>
<path id="Vector_119" d="M72.8984 61.5776C72.8984 61.5776 74.1035 60.3725 75.3086 61.8194C76.0942 62.8112 76.7399 63.9063 77.2275 65.0738" stroke="#263238" stroke-width="1.09196" stroke-linecap="round" stroke-linejoin="round"/>
<path id="Vector_120" d="M80.1542 67.5147C72.0526 62.4104 76.3164 54.0402 76.3164 54.0402C76.3164 54.0402 68.257 60.9482 63.1758 59.4131" stroke="#263238" stroke-width="1.09196" stroke-linecap="round" stroke-linejoin="round"/>
<path id="Vector_121" d="M78.2568 73.0028C78.2568 73.0028 77.1055 74.3767 77.1055 75.1136C77.1055 75.8504 79.4273 78.913 80.3791 77.6465C81.3309 76.38 80.0606 75.4321 79.6384 74.1656C79.2163 72.8992 78.2568 73.0028 78.2568 73.0028Z" fill="white" stroke="#263238" stroke-width="1.09196" stroke-linecap="round" stroke-linejoin="round"/>
<path id="Vector_122" d="M93.5544 72.5806C93.5544 72.5806 86.2626 69.0997 83.8447 67.8333C81.4269 66.5668 80.1528 67.5147 80.1528 67.5147C80.1528 67.5147 75.8237 71.2105 76.0348 71.8438C76.2459 72.477 78.6752 74.4803 78.6752 74.4803C78.6752 74.4803 80.1528 76.5911 81.945 77.1207C83.7373 77.6503 86.3777 78.3834 86.9073 77.539C87.4369 76.6947 86.9073 75.4321 86.9073 75.4321C86.9073 75.4321 88.381 76.6986 89.3328 76.9097C90.2846 77.1207 92.2879 76.9097 92.2879 76.9097C92.2879 76.9097 96.2984 102.761 96.2984 106.664C96.2984 110.567 97.987 114.685 100.942 115.637C103.897 116.589 107.271 114.37 107.904 111.204C108.537 108.038 108.222 104.557 106.323 100.65C104.423 96.7434 97.3538 78.8132 95.9799 76.2764C94.6059 73.7396 94.3987 73.2139 93.5544 72.5806Z" fill="white" stroke="#263238" stroke-width="1.09196" stroke-linecap="round" stroke-linejoin="round"/>
<path id="Vector_123" d="M82.8984 77.4354C82.8984 77.4354 84.2685 73.7434 84.7981 72.8991" stroke="#263238" stroke-width="1.09196" stroke-linecap="round" stroke-linejoin="round"/>
<path id="Vector_124" d="M80.5781 76.2764C80.5781 76.2764 82.3704 71.5213 82.9883 70.6808" stroke="#263238" stroke-width="1.09196" stroke-linecap="round" stroke-linejoin="round"/>
<path id="Vector_125" d="M78.6797 74.4803C78.6797 74.4803 80.0498 70.7884 80.7905 69.5219" stroke="#263238" stroke-width="1.09196" stroke-linecap="round" stroke-linejoin="round"/>
</g>
<g id="Heart">
<path id="Vector_126" d="M41.4662 43.6322L37.7973 42.4079L40.6526 34.2564H37.1986L38.515 28.9948C37.1771 27.0503 35.1409 25.6966 32.8302 25.2155C30.5194 24.7344 28.1121 25.163 26.1094 26.4121C24.1067 27.6612 22.6629 29.6346 22.0785 31.9214C21.4941 34.2082 21.8141 36.6323 22.9719 38.6891C26.1151 45.3016 34.6273 52.4399 37.9393 55.0534L41.4662 43.6322Z" fill="#263238"/>
<path id="Vector_127" d="M47.5845 24.9996C45.2497 24.9985 43.0032 25.8911 41.3058 27.4941L39.8359 32.2185L43.9155 32.0151L40.0432 41.2028L44.1189 42.2198L40.3886 55.2338C43.5126 52.7776 52.3395 45.4589 55.5556 38.689C56.345 37.2939 56.755 35.7162 56.7448 34.1133C56.7345 32.5103 56.3044 30.9381 55.4972 29.5531C54.69 28.1682 53.5339 27.019 52.1443 26.2201C50.7546 25.4211 49.1798 25.0003 47.5768 24.9996H47.5845Z" fill="#263238"/>
</g>
</g>
</svg>
