<svg width="25" height="25" viewBox="0 0 25 25" fill="none" xmlns="http://www.w3.org/2000/svg">
<g id="carbon:search">
<path id="Vector" d="M22.6568 21.5515L16.7568 15.6515C18.1747 13.9494 18.8817 11.7663 18.7308 9.55616C18.5799 7.34606 17.5828 5.27919 15.9469 3.78554C14.3109 2.29189 12.1621 1.48645 9.94744 1.53677C7.73276 1.58709 5.62274 2.4893 4.05633 4.05572C2.48991 5.62213 1.5877 7.73215 1.53738 9.94683C1.48706 12.1615 2.2925 14.3103 3.78615 15.9463C5.27981 17.5822 7.34667 18.5793 9.55677 18.7302C11.7669 18.8811 13.9501 18.174 15.6522 16.7562L21.5522 22.6562L22.6568 21.5515ZM3.12559 10.1562C3.12559 8.76558 3.53797 7.40616 4.31057 6.24988C5.08318 5.0936 6.18131 4.19238 7.4661 3.66021C8.75089 3.12803 10.1646 2.98878 11.5286 3.26009C12.8925 3.53139 14.1454 4.20105 15.1287 5.18439C16.112 6.16773 16.7817 7.42058 17.053 8.7845C17.3243 10.1484 17.1851 11.5622 16.6529 12.847C16.1207 14.1318 15.2195 15.2299 14.0632 16.0025C12.9069 16.7751 11.5475 17.1875 10.1568 17.1875C8.29268 17.1854 6.50545 16.444 5.18728 15.1258C3.86912 13.8076 3.12766 12.0204 3.12559 10.1562Z" fill="#444444"/>
</g>
</svg>
