<svg width="26" height="25" viewBox="0 0 26 25" fill="none" xmlns="http://www.w3.org/2000/svg">
<path d="M19.9576 2.09583L23.0826 5.22083L20.7003 7.60416L17.5753 4.47916L19.9576 2.09583ZM8.51172 16.6667H11.6367L19.2273 9.07603L16.1023 5.95103L8.51172 13.5417V16.6667Z" fill="#2C818B"/>
<path d="M19.9714 19.7917H8.6776C8.65052 19.7917 8.6224 19.8021 8.59531 19.8021C8.56094 19.8021 8.52656 19.7927 8.49115 19.7917H5.38802V5.20833H12.5203L14.6036 3.125H5.38802C4.23906 3.125 3.30469 4.05833 3.30469 5.20833V19.7917C3.30469 20.9417 4.23906 21.875 5.38802 21.875H19.9714C20.5239 21.875 21.0538 21.6555 21.4445 21.2648C21.8352 20.8741 22.0547 20.3442 22.0547 19.7917V10.7625L19.9714 12.8458V19.7917Z" fill="#2C818B"/>
</svg>
