<svg width="18" height="20" viewBox="0 0 18 20" fill="none" xmlns="http://www.w3.org/2000/svg">
<path id="Vector" d="M7.35901 16.75C7.72901 16.29 8.29901 16 8.92901 16C9.55901 16 10.119 16.29 10.489 16.75C10.879 16.66 11.249 16.54 11.609 16.39L10.189 13.21C9.36337 13.5247 8.44962 13.5175 7.62901 13.19L6.19901 16.38C6.57901 16.54 6.95901 16.67 7.35901 16.75ZM2.07901 8C1.71942 9.31316 1.7472 10.7023 2.15901 12C2.78901 12.05 3.37901 12.4 3.71901 12.99C4.04901 13.56 4.06901 14.22 3.82901 14.78C4.09901 15.05 4.38901 15.31 4.69901 15.54L6.21901 12.15C5.74901 11.57 5.46901 10.83 5.46901 10.02C5.46901 8.13 7.01901 6.61 8.92901 6.61C10.839 6.61 12.389 8.14 12.389 10.02C12.389 10.84 12.099 11.59 11.609 12.18L13.109 15.53C13.429 15.29 13.729 15.03 14.009 14.74C13.789 14.19 13.809 13.54 14.129 12.99C14.459 12.42 15.029 12.07 15.649 12C16.0701 10.6974 16.1013 9.30015 15.739 7.98C15.099 7.94 14.479 7.59 14.139 6.98C13.779 6.36 13.789 5.62 14.109 5.03C13.199 4.05 12.009 3.32 10.669 2.98C10.319 3.6 9.66901 4 8.92901 4C8.18901 4 7.53901 3.59 7.18901 2.99C5.87069 3.32105 4.67611 4.02599 3.74901 5.02C4.07901 5.62 4.09901 6.37 3.72901 7C3.37901 7.62 2.73901 7.97 2.07901 8ZM0.779006 7.58C-0.000993609 6.98 -0.240994 5.88 0.269006 5C0.779006 4.12 1.84901 3.77 2.75901 4.15C3.89009 2.95746 5.34162 2.1171 6.93901 1.73C7.07901 0.75 7.91901 0 8.92901 0C9.93901 0 10.779 0.75 10.909 1.73C12.539 2.12 13.979 2.97 15.089 4.15C15.5364 3.96438 16.0361 3.9483 16.4945 4.10478C16.9529 4.26126 17.3385 4.57955 17.579 5C18.089 5.88 17.849 6.98 17.069 7.58C17.299 8.35 17.419 9.16 17.419 10C17.419 10.84 17.299 11.65 17.069 12.42C17.849 13.02 18.089 14.12 17.579 15C17.069 15.88 15.999 16.23 15.089 15.85C14.689 16.28 14.239 16.66 13.749 17L15.089 20H13.229L12.259 17.83C11.829 18.01 11.379 18.16 10.919 18.27C10.779 19.25 9.93901 20 8.92901 20C7.91901 20 7.07901 19.25 6.94901 18.27C6.46901 18.15 6.00901 18 5.56901 17.81L4.58901 20H2.70901L4.06901 16.97C3.59991 16.6403 3.16446 16.2652 2.76901 15.85C1.84901 16.23 0.779006 15.88 0.269006 15C-0.240994 14.12 -0.000993609 13.02 0.779006 12.42C0.549006 11.65 0.429006 10.84 0.429006 10C0.429006 9.16 0.549006 8.35 0.779006 7.58Z" fill="#474747"/>
</svg>
