<svg width="24" height="20" viewBox="0 0 24 20" fill="none" xmlns="http://www.w3.org/2000/svg">
<path id="Vector" d="M6.95 7.05C6.6 7.05 6.354 6.979 6.212 6.837C6.07 6.695 5.99933 6.44933 6 6.1C6 5.43333 6.15833 4.81667 6.475 4.25C6.79167 3.68333 7.21667 3.21667 7.75 2.85L12 0L16.25 2.85C16.7833 3.21667 17.2083 3.68333 17.525 4.25C17.8417 4.81667 18 5.43333 18 6.1C18 6.45 17.929 6.696 17.787 6.838C17.645 6.98 17.3993 7.05067 17.05 7.05H6.95ZM1 20V7.725C0.7 7.54167 0.458333 7.304 0.275 7.012C0.0916667 6.72 0 6.38267 0 6C0 5.61667 0.2 5.15 0.6 4.6C1 4.05 1.46667 3.51667 2 3C2.53333 3.51667 3 4.05 3.4 4.6C3.8 5.15 4 5.61667 4 6C4 6.38333 3.90833 6.72067 3.725 7.012C3.54167 7.30333 3.3 7.541 3 7.725V12H5V10C5 9.58333 5.13333 9.18333 5.4 8.8C5.66667 8.41667 6.05 8.16667 6.55 8.05H17.45C17.95 8.16667 18.3333 8.41667 18.6 8.8C18.8667 9.18333 19 9.58333 19 10V12H21V7.725C20.7 7.54167 20.4583 7.304 20.275 7.012C20.0917 6.72 20 6.38267 20 6C20 5.61667 20.2 5.15 20.6 4.6C21 4.05 21.4667 3.51667 22 3C22.5333 3.51667 23 4.05 23.4 4.6C23.8 5.15 24 5.61667 24 6C24 6.38333 23.9083 6.72067 23.725 7.012C23.5417 7.30333 23.3 7.541 23 7.725V20H14V16C14 15.45 13.804 14.979 13.412 14.587C13.02 14.195 12.5493 13.9993 12 14C11.45 14 10.979 14.196 10.587 14.588C10.195 14.98 9.99933 15.4507 10 16V20H1Z" fill="#474747"/>
</svg>
