<svg width="20" height="19" viewBox="0 0 20 19" fill="none" xmlns="http://www.w3.org/2000/svg">
<path id="Vector" d="M2 19C1.45 19 0.979002 18.804 0.587002 18.412C0.195002 18.02 -0.000664969 17.5493 1.69779e-06 17V6C1.69779e-06 5.45 0.196002 4.979 0.588002 4.587C0.980002 4.195 1.45067 3.99934 2 4H6V2C6 1.45 6.196 0.979002 6.588 0.587002C6.98 0.195002 7.45067 -0.000664969 8 1.69779e-06H12C12.55 1.69779e-06 13.021 0.196002 13.413 0.588002C13.805 0.980002 14.0007 1.45067 14 2V4H18C18.55 4 19.021 4.196 19.413 4.588C19.805 4.98 20.0007 5.45067 20 6V17C20 17.55 19.804 18.021 19.412 18.413C19.02 18.805 18.5493 19.0007 18 19H2ZM8 4H12V2H8V4Z" fill="#474747"/>
</svg>
