<svg width="19" height="19" viewBox="0 0 19 19" fill="none" xmlns="http://www.w3.org/2000/svg">
<path id="Vector" d="M10 11.8925V17.8925C10 18.4425 10.45 18.8925 11 18.8925H17C17.55 18.8925 18 18.4425 18 17.8925V11.8925C18 11.3425 17.55 10.8925 17 10.8925H11C10.45 10.8925 10 11.3425 10 11.8925ZM1 18.8925H7C7.55 18.8925 8 18.4425 8 17.8925V11.8925C8 11.3425 7.55 10.8925 7 10.8925H1C0.45 10.8925 0 11.3425 0 11.8925V17.8925C0 18.4425 0.45 18.8925 1 18.8925ZM0 1.8925V7.8925C0 8.4425 0.45 8.8925 1 8.8925H7C7.55 8.8925 8 8.4425 8 7.8925V1.8925C8 1.3425 7.55 0.8925 7 0.8925H1C0.45 0.8925 0 1.3425 0 1.8925ZM12.95 0.2925L8.7 4.5325C8.6073 4.62501 8.53375 4.7349 8.48357 4.85588C8.43339 4.97685 8.40756 5.10653 8.40756 5.2375C8.40756 5.36847 8.43339 5.49815 8.48357 5.61912C8.53375 5.7401 8.6073 5.84999 8.7 5.9425L12.95 10.1925C13.34 10.5825 13.97 10.5825 14.36 10.1925L18.61 5.9425C18.7027 5.84999 18.7763 5.7401 18.8264 5.61912C18.8766 5.49815 18.9024 5.36847 18.9024 5.2375C18.9024 5.10653 18.8766 4.97685 18.8264 4.85588C18.7763 4.7349 18.7027 4.62501 18.61 4.5325L14.37 0.2925C13.98 -0.0975 13.34 -0.0975 12.95 0.2925Z" fill="#474747"/>
</svg>
