<svg width="20" height="20" viewBox="0 0 20 20" fill="none" xmlns="http://www.w3.org/2000/svg">
<path id="Vector" d="M15 20C14.7167 20 14.479 19.904 14.287 19.712C14.095 19.52 13.9993 19.2827 14 19V17.75C13.35 17.5333 12.7667 17.204 12.25 16.762C11.7333 16.32 11.325 15.791 11.025 15.175C10.8917 14.925 10.8917 14.675 11.025 14.425C11.1583 14.175 11.3583 13.9917 11.625 13.875C11.8583 13.775 12.0917 13.7833 12.325 13.9C12.5583 14.0167 12.7417 14.1917 12.875 14.425C13.1417 14.9083 13.5083 15.2917 13.975 15.575C14.4417 15.8583 14.95 16 15.5 16H18.5C18.9167 16 19.271 16.146 19.563 16.438C19.855 16.73 20.0007 17.084 20 17.5V19C20 19.2833 19.904 19.521 19.712 19.713C19.52 19.905 19.2827 20.0007 19 20H15ZM17 15C16.45 15 15.979 14.804 15.587 14.412C15.195 14.02 14.9993 13.5493 15 13C15 12.45 15.196 11.979 15.588 11.587C15.98 11.195 16.4507 10.9993 17 11C17.55 11 18.021 11.196 18.413 11.588C18.805 11.98 19.0007 12.4507 19 13C19 13.55 18.804 14.021 18.412 14.413C18.02 14.805 17.5493 15.0007 17 15ZM15.075 5.05C13.5083 5.25 12.1707 5.90833 11.062 7.025C9.95334 8.14167 9.291 9.48334 9.075 11.05C9.04167 11.3333 8.925 11.5627 8.725 11.738C8.525 11.9133 8.28334 12.0007 8 12C7.71667 12 7.479 11.904 7.287 11.712C7.095 11.52 7.016 11.291 7.05 11.025C7.28334 8.89167 8.15434 7.08333 9.663 5.6C11.1717 4.11667 12.9923 3.26667 15.125 3.05C15.375 3.01667 15.5833 3.096 15.75 3.288C15.9167 3.48 16 3.71734 16 4C16 4.26667 15.9123 4.5 15.737 4.7C15.5617 4.9 15.341 5.01667 15.075 5.05ZM15.225 9.1C14.7083 9.23334 14.2583 9.48734 13.875 9.862C13.4917 10.2367 13.2333 10.6827 13.1 11.2C13.0333 11.4333 12.896 11.625 12.688 11.775C12.48 11.925 12.2507 12 12 12C11.7167 12 11.4833 11.9123 11.3 11.737C11.1167 11.5617 11.0417 11.3577 11.075 11.125C11.2583 10.075 11.7293 9.18334 12.488 8.45C13.2467 7.71667 14.1507 7.25834 15.2 7.075C15.4333 7.04167 15.625 7.121 15.775 7.313C15.925 7.505 16 7.734 16 8C16 8.25 15.929 8.47933 15.787 8.688C15.645 8.89667 15.4577 9.034 15.225 9.1ZM1 9C0.71667 9 0.479003 8.904 0.287003 8.712C0.0950034 8.52 -0.000663206 8.28267 3.46021e-06 8V6.5C3.46021e-06 6.08334 0.146003 5.729 0.438003 5.437C0.730003 5.145 1.084 4.99934 1.5 5H4.5C5.05 5 5.55834 4.85834 6.025 4.575C6.49167 4.29167 6.85834 3.90834 7.125 3.425C7.25834 3.19167 7.44167 3.004 7.675 2.862C7.90834 2.72 8.15 2.691 8.4 2.775C8.68334 2.85834 8.9 3.01667 9.05 3.25C9.2 3.48334 9.225 3.725 9.125 3.975C8.84167 4.65833 8.425 5.23334 7.875 5.7C7.325 6.16667 6.7 6.51667 6 6.75V8C6 8.28334 5.904 8.521 5.712 8.713C5.52 8.905 5.28267 9.00067 5 9H1ZM3 4C2.45 4 1.979 3.804 1.587 3.412C1.195 3.02 0.999337 2.54934 1 2C1 1.45 1.196 0.979002 1.588 0.587002C1.98 0.195002 2.45067 -0.000664969 3 1.69779e-06C3.55 1.69779e-06 4.021 0.196002 4.413 0.588002C4.805 0.980002 5.00067 1.45067 5 2C5 2.55 4.804 3.021 4.412 3.413C4.02 3.805 3.54934 4.00067 3 4Z" fill="#474747"/>
</svg>
