<svg width="20" height="14" viewBox="0 0 20 14" fill="none" xmlns="http://www.w3.org/2000/svg">
<path id="Vector" d="M2.535 14C1.685 14 1.02667 13.704 0.56 13.112C0.0933334 12.52 -0.0816667 11.7993 0.035 10.95L1.085 3.45C1.235 2.45 1.681 1.625 2.423 0.975C3.165 0.325 4.03567 0 5.035 0H14.935C15.935 0 16.806 0.325 17.548 0.975C18.29 1.625 18.7357 2.45 18.885 3.45L19.935 10.95C20.0517 11.8 19.8767 12.521 19.41 13.113C18.9433 13.705 18.285 14.0007 17.435 14C17.085 14 16.76 13.9373 16.46 13.812C16.16 13.6867 15.885 13.4993 15.635 13.25L13.385 11H6.585L4.335 13.25C4.085 13.5 3.81 13.6877 3.51 13.813C3.21 13.9383 2.885 14.0007 2.535 14ZM14.985 8C15.2683 8 15.506 7.904 15.698 7.712C15.89 7.52 15.9857 7.28267 15.985 7C15.985 6.71667 15.889 6.479 15.697 6.287C15.505 6.095 15.2677 5.99933 14.985 6C14.7017 6 14.464 6.096 14.272 6.288C14.08 6.48 13.9843 6.71733 13.985 7C13.985 7.28333 14.081 7.521 14.273 7.713C14.465 7.905 14.7023 8.00067 14.985 8ZM12.985 5C13.2683 5 13.506 4.904 13.698 4.712C13.89 4.52 13.9857 4.28267 13.985 4C13.985 3.71667 13.889 3.479 13.697 3.287C13.505 3.095 13.2677 2.99933 12.985 3C12.7017 3 12.464 3.096 12.272 3.288C12.08 3.48 11.9843 3.71733 11.985 4C11.985 4.28333 12.081 4.521 12.273 4.713C12.465 4.905 12.7023 5.00067 12.985 5ZM5.735 8H7.235V6.25H8.985V4.75H7.235V3H5.735V4.75H3.985V6.25H5.735V8Z" fill="#474747"/>
</svg>
