<svg width="20" height="20" viewBox="0 0 20 20" fill="none" xmlns="http://www.w3.org/2000/svg">
<g clip-path="url(#clip0_2372_6606)">
<path d="M10.0006 19.2857C15.1289 19.2857 19.2863 15.1283 19.2863 9.99995C19.2863 4.87159 15.1289 0.714233 10.0006 0.714233C4.8722 0.714233 0.714844 4.87159 0.714844 9.99995C0.714844 15.1283 4.8722 19.2857 10.0006 19.2857Z" stroke="#121212" stroke-linecap="round" stroke-linejoin="round"/>
<path d="M7.85547 7.85709C7.85547 7.43327 7.98115 7.01898 8.21661 6.66658C8.45207 6.31419 8.78673 6.03954 9.17829 5.87735C9.56985 5.71516 10.0007 5.67273 10.4164 5.75541C10.832 5.83809 11.2139 6.04218 11.5136 6.34186C11.8132 6.64155 12.0173 7.02337 12.1 7.43904C12.1827 7.85471 12.1403 8.28557 11.9781 8.67713C11.8159 9.06868 11.5412 9.40335 11.1888 9.63881C10.8364 9.87427 10.4221 9.99995 9.99833 9.99995V11.4285" stroke="#121212" stroke-linecap="round" stroke-linejoin="round"/>
<path d="M10.0011 13.5714C9.78921 13.5714 9.58206 13.6342 9.40586 13.752C9.22967 13.8697 9.09234 14.037 9.01125 14.2328C8.93015 14.4286 8.90893 14.644 8.95028 14.8519C8.99162 15.0597 9.09366 15.2506 9.2435 15.4005C9.39334 15.5503 9.58425 15.6523 9.79209 15.6937C9.99993 15.735 10.2154 15.7138 10.4111 15.6327C10.6069 15.5516 10.7742 15.4143 10.892 15.2381C11.0097 15.0619 11.0725 14.8547 11.0725 14.6428C11.0688 14.3598 10.9548 14.0895 10.7546 13.8893C10.5545 13.6892 10.2841 13.5751 10.0011 13.5714Z" fill="#121212"/>
</g>
<defs>
<clipPath id="clip0_2372_6606">
<rect width="20" height="20" fill="white"/>
</clipPath>
</defs>
</svg>
