<svg width="39" height="39" viewBox="0 0 39 39" fill="none" xmlns="http://www.w3.org/2000/svg">
<circle cx="19.5" cy="19.5" r="9.5" fill="#1A3522"/>
<path d="M24.7709 16.2122C24.7048 16.1485 24.6261 16.0919 24.5393 16.0566C24.4527 16.0212 24.3597 16 24.2657 16C24.1718 16 24.0788 16.0212 23.9921 16.0566C23.9054 16.0919 23.8267 16.1485 23.7606 16.2122L18.4595 21.49L16.2323 19.2686C16.1636 19.2049 16.0826 19.1483 15.9937 19.1129C15.9049 19.0846 15.8101 19.0634 15.7146 19.0634C15.6191 19.0704 15.5249 19.0846 15.4373 19.127C15.3497 19.1624 15.2705 19.219 15.2041 19.2898C15.1378 19.3535 15.0856 19.4383 15.0506 19.5232C15.0156 19.6152 14.9985 19.7072 15.0001 19.7992C15.0017 19.8982 15.0222 19.9902 15.0602 20.0751C15.0983 20.1671 15.1532 20.2449 15.2219 20.3085L17.9543 23.0252C18.0204 23.0889 18.0991 23.1456 18.1859 23.1809C18.2725 23.2163 18.3655 23.2375 18.4595 23.2375C18.5534 23.2375 18.6464 23.2163 18.7331 23.1809C18.8198 23.1456 18.8985 23.0889 18.9647 23.0252L24.7709 17.2523C24.8432 17.1886 24.9008 17.1036 24.9402 17.0187C24.9797 16.9268 25 16.8277 25 16.7357C25 16.6367 24.9797 16.5377 24.9402 16.4457C24.9008 16.3608 24.8432 16.2759 24.7709 16.2122Z" fill="#34B25E"/>
</svg>
