<svg width="17" height="17" viewBox="0 0 17 17" fill="none" xmlns="http://www.w3.org/2000/svg">
<path id="Vector" d="M9.42004 8L15.72 1.70996C15.91 1.51996 16.01 1.27 16.01 1C16.01 0.73 15.91 0.480039 15.72 0.290039C15.53 0.100039 15.28 0 15.01 0C14.74 0 14.49 0.100039 14.3 0.290039L8.01001 6.58997L1.71997 0.290039C1.52997 0.100039 1.28001 0 1.01001 0C0.74001 0 0.490049 0.100039 0.300049 0.290039C0.110049 0.480039 0.0100098 0.73 0.0100098 1C0.0100098 1.27 0.110049 1.51996 0.300049 1.70996L6.59998 8L0.300049 14.29C0.210049 14.38 0.129956 14.49 0.0799561 14.62C0.0299561 14.74 0 14.87 0 15C0 15.13 0.0299561 15.26 0.0799561 15.38C0.129956 15.51 0.210049 15.62 0.300049 15.71C0.390049 15.8 0.500005 15.8801 0.630005 15.9301C0.750005 15.9801 0.88001 16.01 1.01001 16.01C1.14001 16.01 1.27001 15.9801 1.39001 15.9301C1.52001 15.8801 1.62997 15.8 1.71997 15.71L8.01001 9.41003L14.3 15.71C14.39 15.8 14.5 15.8801 14.63 15.9301C14.75 15.9801 14.88 16.01 15.01 16.01C15.14 16.01 15.27 15.9801 15.39 15.9301C15.52 15.8801 15.63 15.8 15.72 15.71C15.81 15.62 15.8901 15.51 15.9401 15.38C15.9901 15.26 16.02 15.13 16.02 15C16.02 14.87 15.9901 14.74 15.9401 14.62C15.8901 14.49 15.81 14.38 15.72 14.29L9.42004 8Z" fill="#7E817A"/>
</svg>
